M48
; DRILL file {KiCad 8.0.5} date 2024-11-09T23:01:44+0100
; FORMAT={-:-/ absolute / inch / decimal}
; #@! TF.CreationDate,2024-11-09T23:01:44+01:00
; #@! TF.GenerationSoftware,Kicad,Pcbnew,8.0.5
; #@! TF.FileFunction,NonPlated,1,2,NPTH
FMAT,2
INCH
; #@! TA.AperFunction,NonPlated,NPTH,ComponentDrill
T1C0.0197
%
G90
G05
T1
X4.1873Y-2.7439
X4.1873Y-2.7734
X4.1873Y-2.8029
X4.1874Y-3.7675
X4.1874Y-3.797
X4.1874Y-3.8265
X4.2463Y-2.7439
X4.2463Y-2.7734
X4.2463Y-2.8029
X4.2465Y-3.7675
X4.2465Y-3.797
X4.2465Y-3.8265
X4.6991Y-2.547
X4.6991Y-2.6061
X4.6992Y-3.5706
X4.6992Y-3.6297
X4.6992Y-4.5943
X4.6992Y-4.6533
X4.7286Y-2.547
X4.7286Y-2.6061
X4.7287Y-3.5706
X4.7287Y-3.6297
X4.7287Y-4.5943
X4.7287Y-4.6533
X4.7581Y-2.547
X4.7581Y-2.6061
X4.7583Y-3.5706
X4.7583Y-3.6297
X4.7583Y-4.5943
X4.7583Y-4.6533
X5.2109Y-3.2557
X5.2109Y-3.2852
X5.2109Y-3.3147
X5.211Y-4.2793
X5.211Y-4.3088
X5.211Y-4.3383
X5.27Y-3.2557
X5.27Y-3.2852
X5.27Y-3.3147
X5.2701Y-4.2793
X5.2701Y-4.3088
X5.2701Y-4.3383
X5.7227Y-2.547
X5.7227Y-2.6061
X5.7227Y-3.3344
X5.7227Y-3.3935
X5.7228Y-3.5706
X5.7228Y-3.6297
X5.7228Y-4.358
X5.7228Y-4.4171
X5.7228Y-4.5943
X5.7228Y-4.6533
X5.7522Y-2.547
X5.7522Y-2.6061
X5.7522Y-3.3344
X5.7522Y-3.3935
X5.7524Y-3.5706
X5.7524Y-3.6297
X5.7524Y-4.358
X5.7524Y-4.4171
X5.7524Y-4.5943
X5.7524Y-4.6533
X5.7818Y-2.547
X5.7818Y-2.6061
X5.7818Y-3.3344
X5.7818Y-3.3935
X5.7819Y-3.5706
X5.7819Y-3.6297
X5.7819Y-4.358
X5.7819Y-4.4171
X5.7819Y-4.5943
X5.7819Y-4.6533
X6.2345Y-3.2557
X6.2345Y-3.2852
X6.2345Y-3.3147
X6.2346Y-4.2793
X6.2346Y-4.3088
X6.2346Y-4.3383
X6.2936Y-3.2557
X6.2936Y-3.2852
X6.2936Y-3.3147
X6.2937Y-4.2793
X6.2937Y-4.3088
X6.2937Y-4.3383
X6.7857Y-2.547
X6.7857Y-2.6061
X6.7858Y-3.5706
X6.7858Y-3.6297
X6.7858Y-4.5943
X6.7858Y-4.6533
X6.8152Y-2.547
X6.8152Y-2.6061
X6.8154Y-3.5706
X6.8154Y-3.6297
X6.8154Y-4.5943
X6.8154Y-4.6533
X6.8448Y-2.547
X6.8448Y-2.6061
X6.8449Y-3.5706
X6.8449Y-3.6297
X6.8449Y-4.5943
X6.8449Y-4.6533
X7.2874Y-2.7439
X7.2874Y-2.7734
X7.2874Y-2.8029
X7.2875Y-3.7675
X7.2875Y-3.797
X7.2875Y-3.8265
X7.3465Y-2.7439
X7.3465Y-2.7734
X7.3465Y-2.8029
X7.3466Y-3.7675
X7.3466Y-3.797
X7.3466Y-3.8265
M30
