%TF.GenerationSoftware,KiCad,Pcbnew,8.0.5*%
%TF.CreationDate,2024-11-09T23:01:36+01:00*%
%TF.ProjectId,NanoSumo_Mouse_Bites_Gerber_File,4e616e6f-5375-46d6-9f5f-4d6f7573655f,rev?*%
%TF.SameCoordinates,Original*%
%TF.FileFunction,Paste,Bot*%
%TF.FilePolarity,Positive*%
%FSLAX46Y46*%
G04 Gerber Fmt 4.6, Leading zero omitted, Abs format (unit mm)*
G04 Created by KiCad (PCBNEW 8.0.5) date 2024-11-09 23:01:36*
%MOMM*%
%LPD*%
G01*
G04 APERTURE LIST*
G04 Aperture macros list*
%AMRoundRect*
0 Rectangle with rounded corners*
0 $1 Rounding radius*
0 $2 $3 $4 $5 $6 $7 $8 $9 X,Y pos of 4 corners*
0 Add a 4 corners polygon primitive as box body*
4,1,4,$2,$3,$4,$5,$6,$7,$8,$9,$2,$3,0*
0 Add four circle primitives for the rounded corners*
1,1,$1+$1,$2,$3*
1,1,$1+$1,$4,$5*
1,1,$1+$1,$6,$7*
1,1,$1+$1,$8,$9*
0 Add four rect primitives between the rounded corners*
20,1,$1+$1,$2,$3,$4,$5,0*
20,1,$1+$1,$4,$5,$6,$7,0*
20,1,$1+$1,$6,$7,$8,$9,0*
20,1,$1+$1,$8,$9,$2,$3,0*%
%AMRotRect*
0 Rectangle, with rotation*
0 The origin of the aperture is its center*
0 $1 length*
0 $2 width*
0 $3 Rotation angle, in degrees counterclockwise*
0 Add horizontal line*
21,1,$1,$2,0,0,$3*%
%AMFreePoly0*
4,1,5,0.182000,-0.831000,-0.182000,-0.831000,-0.182000,0.831000,0.182000,0.831000,0.182000,-0.831000,0.182000,-0.831000,$1*%
%AMFreePoly1*
4,1,5,0.900000,-0.750000,-0.900000,-0.750000,-0.900000,0.750000,0.900000,0.750000,0.900000,-0.750000,0.900000,-0.750000,$1*%
G04 Aperture macros list end*
%ADD10R,0.725000X0.700000*%
%ADD11R,1.100000X1.200000*%
%ADD12RoundRect,0.079500X-0.100500X0.079500X-0.100500X-0.079500X0.100500X-0.079500X0.100500X0.079500X0*%
%ADD13R,0.700000X1.200000*%
%ADD14R,0.760000X1.200000*%
%ADD15R,0.800000X1.200000*%
%ADD16RoundRect,0.079500X0.100500X-0.079500X0.100500X0.079500X-0.100500X0.079500X-0.100500X-0.079500X0*%
%ADD17RoundRect,0.079500X0.079500X0.100500X-0.079500X0.100500X-0.079500X-0.100500X0.079500X-0.100500X0*%
%ADD18RoundRect,0.088250X-0.088250X-0.638750X0.088250X-0.638750X0.088250X0.638750X-0.088250X0.638750X0*%
%ADD19R,1.500000X1.500000*%
%ADD20RoundRect,0.079500X0.014849X-0.127279X0.127279X-0.014849X-0.014849X0.127279X-0.127279X0.014849X0*%
%ADD21RoundRect,0.140000X-0.140000X-0.170000X0.140000X-0.170000X0.140000X0.170000X-0.140000X0.170000X0*%
%ADD22RoundRect,0.100000X-0.100000X0.637500X-0.100000X-0.637500X0.100000X-0.637500X0.100000X0.637500X0*%
%ADD23RotRect,1.500000X1.500000X225.000000*%
%ADD24RoundRect,0.140000X0.140000X0.170000X-0.140000X0.170000X-0.140000X-0.170000X0.140000X-0.170000X0*%
%ADD25RoundRect,0.079500X-0.079500X-0.100500X0.079500X-0.100500X0.079500X0.100500X-0.079500X0.100500X0*%
%ADD26FreePoly0,180.000000*%
%ADD27FreePoly1,180.000000*%
%ADD28R,2.000000X2.000000*%
%ADD29R,0.530860X1.071880*%
G04 APERTURE END LIST*
D10*
%TO.C,U3*%
X157181196Y-68522021D03*
X156106195Y-68522020D03*
X155031196Y-68522020D03*
X153956194Y-68522019D03*
%TD*%
%TO.C,U3*%
X157184196Y-94522021D03*
X156109195Y-94522020D03*
X155034196Y-94522020D03*
X153959194Y-94522019D03*
%TD*%
D11*
%TO.C,A2*%
X173778591Y-89183590D03*
X171378589Y-89183590D03*
X171378589Y-85883590D03*
X173778591Y-85883590D03*
%TD*%
%TO.C,A1*%
X171983721Y-67578476D03*
X174383723Y-67578473D03*
X174383725Y-70878476D03*
X171983723Y-70878479D03*
%TD*%
D12*
%TO.C,R14*%
X155671600Y-96805701D03*
X155671600Y-97495699D03*
%TD*%
D10*
%TO.C,U7*%
X138255854Y-68508198D03*
X137180853Y-68508197D03*
X136105854Y-68508197D03*
X135030852Y-68508196D03*
%TD*%
D13*
%TO.C,J1*%
X120282126Y-111040309D03*
D14*
X118262126Y-111040309D03*
D15*
X117032126Y-111040309D03*
D13*
X119282126Y-111040309D03*
D14*
X121302126Y-111040309D03*
D15*
X122532126Y-111040309D03*
%TD*%
D12*
%TO.C,R16*%
X172109475Y-99211001D03*
X172109475Y-99901003D03*
%TD*%
%TO.C,R1*%
X128553264Y-73565160D03*
X128553264Y-74255156D03*
%TD*%
D11*
%TO.C,A1*%
X171986721Y-93578476D03*
X174386723Y-93578473D03*
X174386725Y-96878476D03*
X171986723Y-96878479D03*
%TD*%
D16*
%TO.C,R20*%
X173803091Y-83814588D03*
X173803091Y-83124592D03*
%TD*%
%TO.C,C13*%
X136100352Y-70530046D03*
X136100352Y-69840050D03*
%TD*%
D17*
%TO.C,C2*%
X122077314Y-75417880D03*
X121387312Y-75417878D03*
%TD*%
D18*
%TO.C,U9*%
X117123126Y-102512309D03*
X117773128Y-102506311D03*
X118423125Y-102512310D03*
X119073126Y-102512309D03*
X119073125Y-108348308D03*
X118423124Y-108354309D03*
X117773128Y-108360307D03*
X117123126Y-108354309D03*
%TD*%
D16*
%TO.C,C13*%
X136103352Y-96530046D03*
X136103352Y-95840050D03*
%TD*%
D19*
%TO.C,NRST*%
X136455952Y-81361048D03*
%TD*%
D12*
%TO.C,R2*%
X127808070Y-99565341D03*
X127808070Y-100255343D03*
%TD*%
D19*
%TO.C,BOUT1*%
X154797752Y-101823848D03*
%TD*%
%TO.C,BOUT2*%
X154761830Y-104211448D03*
%TD*%
D20*
%TO.C,R5*%
X121789176Y-106706859D03*
X122277076Y-106218959D03*
%TD*%
D21*
%TO.C,C3*%
X109523126Y-97383309D03*
X110483126Y-97383309D03*
%TD*%
D22*
%TO.C,U2*%
X147084151Y-74180549D03*
X147734153Y-74180548D03*
X148384153Y-74180549D03*
X149034153Y-74180549D03*
X149684151Y-74180549D03*
X150334152Y-74180548D03*
X150984152Y-74180548D03*
X151634152Y-74180548D03*
X151634153Y-79905547D03*
X150984151Y-79905548D03*
X150334151Y-79905547D03*
X149684151Y-79905547D03*
X149034153Y-79905547D03*
X148384152Y-79905548D03*
X147734152Y-79905548D03*
X147084152Y-79905548D03*
%TD*%
D23*
%TO.C,AOUT1*%
X144180552Y-100198248D03*
%TD*%
D12*
%TO.C,R16*%
X172106475Y-73211001D03*
X172106475Y-73901003D03*
%TD*%
D17*
%TO.C,C1*%
X126873926Y-107275709D03*
X126183926Y-107275709D03*
%TD*%
D24*
%TO.C,C8*%
X149407752Y-108427848D03*
X148447752Y-108427848D03*
%TD*%
D17*
%TO.C,R3*%
X129286924Y-107275709D03*
X128596928Y-107275709D03*
%TD*%
D24*
%TO.C,C7*%
X149407752Y-107411848D03*
X148447752Y-107411848D03*
%TD*%
D16*
%TO.C,R20*%
X173806091Y-109814588D03*
X173806091Y-109124592D03*
%TD*%
D25*
%TO.C,R15*%
X169140592Y-69596590D03*
X169830588Y-69596590D03*
%TD*%
D26*
%TO.C,U4*%
X129154927Y-105850710D03*
X128504926Y-105850709D03*
X127854926Y-105850709D03*
X127204926Y-105850711D03*
X127204925Y-101588708D03*
X127854926Y-101588709D03*
X128504926Y-101588709D03*
X129154926Y-101588707D03*
D27*
X128179926Y-103719709D03*
%TD*%
D12*
%TO.C,R8*%
X150324352Y-72024449D03*
X150324352Y-72714447D03*
%TD*%
%TO.C,R1*%
X128553264Y-99565344D03*
X128553264Y-100255340D03*
%TD*%
%TO.C,R7*%
X148396952Y-98024449D03*
X148396952Y-98714447D03*
%TD*%
D22*
%TO.C,U2*%
X147087151Y-100180549D03*
X147737153Y-100180548D03*
X148387153Y-100180549D03*
X149037153Y-100180549D03*
X149687151Y-100180549D03*
X150337152Y-100180548D03*
X150987152Y-100180548D03*
X151637152Y-100180548D03*
X151637153Y-105905547D03*
X150987151Y-105905548D03*
X150337151Y-105905547D03*
X149687151Y-105905547D03*
X149037153Y-105905547D03*
X148387152Y-105905548D03*
X147737152Y-105905548D03*
X147087152Y-105905548D03*
%TD*%
D17*
%TO.C,C2*%
X122077314Y-101418064D03*
X121387312Y-101418062D03*
%TD*%
D19*
%TO.C,NRST*%
X136458952Y-107361048D03*
%TD*%
D26*
%TO.C,U4*%
X129154927Y-79850526D03*
X128504926Y-79850525D03*
X127854926Y-79850525D03*
X127204926Y-79850527D03*
X127204925Y-75588524D03*
X127854926Y-75588525D03*
X128504926Y-75588525D03*
X129154926Y-75588523D03*
D27*
X128179926Y-77719525D03*
%TD*%
D24*
%TO.C,C8*%
X149404752Y-82427848D03*
X148444752Y-82427848D03*
%TD*%
D16*
%TO.C,R4*%
X122998326Y-75443244D03*
X122998326Y-74753246D03*
%TD*%
D17*
%TO.C,R3*%
X129286924Y-81275525D03*
X128596928Y-81275525D03*
%TD*%
D25*
%TO.C,R15*%
X169143592Y-95596590D03*
X169833588Y-95596590D03*
%TD*%
D12*
%TO.C,R7*%
X148393952Y-72024449D03*
X148393952Y-72714447D03*
%TD*%
D16*
%TO.C,C12*%
X135033552Y-70530047D03*
X135033552Y-69840049D03*
%TD*%
D11*
%TO.C,A2*%
X173781591Y-115183590D03*
X171381589Y-115183590D03*
X171381589Y-111883590D03*
X173781591Y-111883590D03*
%TD*%
D12*
%TO.C,R19*%
X175457590Y-114428589D03*
X175457590Y-115118591D03*
%TD*%
D28*
%TO.C,BAT+*%
X109495126Y-99034309D03*
%TD*%
D12*
%TO.C,R19*%
X175454590Y-88428589D03*
X175454590Y-89118591D03*
%TD*%
D13*
%TO.C,J1*%
X120282126Y-85040125D03*
D14*
X118262126Y-85040125D03*
D15*
X117032126Y-85040125D03*
D13*
X119282126Y-85040125D03*
D14*
X121302126Y-85040125D03*
D15*
X122532126Y-85040125D03*
%TD*%
D24*
%TO.C,C7*%
X149404752Y-81411848D03*
X148444752Y-81411848D03*
%TD*%
D28*
%TO.C,BAT+*%
X109495126Y-73034125D03*
%TD*%
D29*
%TO.C,U6*%
X123948286Y-105040509D03*
X122998326Y-105040509D03*
X122048366Y-105040509D03*
X122048366Y-102744349D03*
X122998326Y-102744349D03*
X123948286Y-102744349D03*
%TD*%
D21*
%TO.C,C3*%
X109523126Y-71383125D03*
X110483126Y-71383125D03*
%TD*%
D23*
%TO.C,AOUT2*%
X141231152Y-76077848D03*
%TD*%
D12*
%TO.C,R2*%
X127808070Y-73565157D03*
X127808070Y-74255159D03*
%TD*%
D23*
%TO.C,AOUT1*%
X144177552Y-74198248D03*
%TD*%
D20*
%TO.C,R5*%
X121789176Y-80706675D03*
X122277076Y-80218775D03*
%TD*%
D25*
%TO.C,C6*%
X150256154Y-81919848D03*
X150946150Y-81919848D03*
%TD*%
D16*
%TO.C,C12*%
X135036552Y-96530047D03*
X135036552Y-95840049D03*
%TD*%
D19*
%TO.C,BOUT1*%
X154794752Y-75823848D03*
%TD*%
D17*
%TO.C,C1*%
X126873926Y-81275525D03*
X126183926Y-81275525D03*
%TD*%
D29*
%TO.C,U6*%
X123948286Y-79040325D03*
X122998326Y-79040325D03*
X122048366Y-79040325D03*
X122048366Y-76744165D03*
X122998326Y-76744165D03*
X123948286Y-76744165D03*
%TD*%
D16*
%TO.C,R4*%
X122998326Y-101443428D03*
X122998326Y-100753430D03*
%TD*%
D25*
%TO.C,C6*%
X150259154Y-107919848D03*
X150949150Y-107919848D03*
%TD*%
D10*
%TO.C,U7*%
X138258854Y-94508198D03*
X137183853Y-94508197D03*
X136108854Y-94508197D03*
X135033852Y-94508196D03*
%TD*%
D23*
%TO.C,AOUT2*%
X141234152Y-102077848D03*
%TD*%
D18*
%TO.C,U9*%
X117123126Y-76512125D03*
X117773128Y-76506127D03*
X118423125Y-76512126D03*
X119073126Y-76512125D03*
X119073125Y-82348124D03*
X118423124Y-82354125D03*
X117773128Y-82360123D03*
X117123126Y-82354125D03*
%TD*%
D12*
%TO.C,R8*%
X150327352Y-98024449D03*
X150327352Y-98714447D03*
%TD*%
%TO.C,R14*%
X155668600Y-70805701D03*
X155668600Y-71495699D03*
%TD*%
D19*
%TO.C,BOUT2*%
X154758830Y-78211448D03*
%TD*%
M02*
