M48
; DRILL file {KiCad 8.0.5} date 2024-11-09T23:01:44+0100
; FORMAT={-:-/ absolute / inch / decimal}
; #@! TF.CreationDate,2024-11-09T23:01:44+01:00
; #@! TF.GenerationSoftware,Kicad,Pcbnew,8.0.5
; #@! TF.FileFunction,Plated,1,2,PTH
FMAT,2
INCH
; #@! TA.AperFunction,Plated,PTH,ViaDrill
T1C0.0079
; #@! TA.AperFunction,Plated,PTH,ComponentDrill
T2C0.0236
; #@! TA.AperFunction,Plated,PTH,ComponentDrill
T3C0.0394
%
G90
G05
T1
X4.3108Y-2.7704
X4.3108Y-3.794
X4.3658Y-3.4398
X4.3658Y-4.4635
X4.3985Y-2.8978
X4.3985Y-3.9215
X4.4008Y-3.4398
X4.4008Y-4.4635
X4.4408Y-3.3554
X4.4408Y-4.379
X4.4758Y-3.3554
X4.4758Y-4.379
X4.5576Y-3.0563
X4.5576Y-4.08
X4.6367Y-3.1354
X4.6367Y-4.1591
X4.7625Y-3.1898
X4.7625Y-4.2135
X4.7908Y-2.7954
X4.7908Y-2.8304
X4.7908Y-3.819
X4.7908Y-3.854
X4.8258Y-2.7954
X4.8258Y-2.8304
X4.8258Y-3.819
X4.8258Y-3.854
X4.9458Y-3.2904
X4.9458Y-4.314
X4.9608Y-3.3404
X4.9608Y-3.3754
X4.9608Y-4.364
X4.9608Y-4.399
X4.9958Y-3.3404
X4.9958Y-3.3754
X4.9958Y-4.364
X4.9958Y-4.399
X5.0365Y-3.1948
X5.0365Y-4.2185
X5.0958Y-3.3004
X5.0958Y-4.324
X5.1062Y-3.1444
X5.1062Y-4.168
X5.2963Y-2.8192
X5.2964Y-3.8428
X5.3483Y-2.8032
X5.3484Y-3.8268
X5.3503Y-2.8852
X5.3504Y-3.9088
X5.3743Y-3.3452
X5.3743Y-3.3752
X5.3744Y-4.3688
X5.3744Y-4.3988
X5.4003Y-2.8612
X5.4004Y-3.8848
X5.4083Y-2.9472
X5.4083Y-3.0692
X5.4084Y-3.9708
X5.4084Y-4.0928
X5.4183Y-3.2052
X5.4184Y-4.2288
X5.4223Y-2.8292
X5.4224Y-3.8528
X5.4323Y-3.1152
X5.4323Y-3.2412
X5.4324Y-4.1388
X5.4324Y-4.2648
X5.4383Y-2.9752
X5.4384Y-3.9988
X5.4523Y-3.3532
X5.4524Y-4.3768
X5.4583Y-3.2812
X5.4584Y-4.3048
X5.4623Y-3.1252
X5.4624Y-4.1488
X5.4715Y-3.1784
X5.4716Y-4.202
X5.4723Y-3.1512
X5.4724Y-4.1748
X5.5023Y-2.9092
X5.5023Y-3.3132
X5.5024Y-3.9328
X5.5024Y-4.3368
X5.5093Y-2.7662
X5.5094Y-3.7898
X5.5223Y-3.0912
X5.5224Y-4.1148
X5.5263Y-3.0672
X5.5264Y-4.0908
X5.5312Y-3.2396
X5.5314Y-4.2633
X5.5483Y-2.8512
X5.5484Y-3.8748
X5.5503Y-3.0632
X5.5504Y-4.0868
X5.5543Y-3.2832
X5.5544Y-4.3068
X5.5683Y-3.1652
X5.5684Y-4.1888
X5.5923Y-2.9472
X5.5924Y-3.9708
X5.5981Y-3.1717
X5.5982Y-4.1954
X5.6143Y-2.8432
X5.6144Y-3.8668
X5.6343Y-2.8572
X5.6344Y-3.8808
X5.635Y-3.2192
X5.6352Y-4.2428
X5.6403Y-2.8812
X5.6403Y-3.0472
X5.6404Y-3.9048
X5.6404Y-4.0708
X5.6563Y-3.2295
X5.6564Y-4.2531
X5.6863Y-3.0212
X5.6864Y-4.0448
X5.6883Y-3.0852
X5.6884Y-4.1088
X5.7023Y-3.1052
X5.7023Y-3.1652
X5.7024Y-4.1288
X5.7024Y-4.1888
X5.7046Y-3.0655
X5.7047Y-4.0891
X5.7383Y-2.8712
X5.7384Y-3.8948
X5.7443Y-3.1252
X5.7443Y-3.1672
X5.7444Y-4.1488
X5.7444Y-4.1908
X5.7543Y-2.7112
X5.7544Y-3.7348
X5.7743Y-3.2295
X5.7744Y-4.2531
X5.7903Y-2.8712
X5.7904Y-3.8948
X5.8463Y-3.0932
X5.8464Y-4.1168
X5.8703Y-3.0592
X5.8704Y-4.0828
X5.9003Y-2.7552
X5.9004Y-3.7788
X5.9703Y-3.0712
X5.9704Y-4.0948
X5.979Y-2.7552
X5.9791Y-3.7788
X6.0183Y-2.8532
X6.0184Y-3.8768
X6.0443Y-2.7452
X6.0443Y-2.7812
X6.0443Y-2.8272
X6.0444Y-3.7688
X6.0444Y-3.8048
X6.0444Y-3.8508
X6.0523Y-2.8872
X6.0524Y-3.9108
X6.0763Y-2.7912
X6.0764Y-3.8148
X6.0853Y-3.1702
X6.0853Y-3.2052
X6.0853Y-3.2402
X6.0853Y-3.2752
X6.0853Y-3.3102
X6.0853Y-3.3452
X6.0854Y-4.1938
X6.0854Y-4.2288
X6.0854Y-4.2638
X6.0854Y-4.2988
X6.0854Y-4.3338
X6.0854Y-4.3688
X6.1041Y-2.8432
X6.1043Y-3.8668
X6.1203Y-3.1702
X6.1203Y-3.2052
X6.1203Y-3.2402
X6.1203Y-3.2752
X6.1203Y-3.3102
X6.1203Y-3.3452
X6.1204Y-4.1938
X6.1204Y-4.2288
X6.1204Y-4.2638
X6.1204Y-4.2988
X6.1204Y-4.3338
X6.1204Y-4.3688
X6.1303Y-2.9112
X6.1304Y-3.9348
X6.1467Y-2.8852
X6.1468Y-3.9088
X6.1567Y-2.8032
X6.1568Y-3.8268
X6.2043Y-2.8412
X6.2044Y-3.8648
X6.5822Y-3.4245
X6.5822Y-3.4595
X6.5823Y-4.4481
X6.5823Y-4.4831
X6.6583Y-3.4245
X6.6583Y-3.4595
X6.6584Y-4.4481
X6.6584Y-4.4831
X6.6927Y-3.215
X6.6928Y-4.2386
X6.6933Y-3.4245
X6.6933Y-3.4595
X6.6934Y-4.4481
X6.6934Y-4.4831
X6.7427Y-2.955
X6.7428Y-3.9786
X6.7727Y-2.955
X6.7728Y-3.9786
X6.7827Y-3.245
X6.7828Y-4.2686
X6.8027Y-2.955
X6.8028Y-3.9786
X6.8127Y-3.245
X6.8128Y-4.2686
X6.8427Y-3.245
X6.8428Y-4.2686
X6.9377Y-2.825
X6.9378Y-3.8486
T3
X4.2984Y-3.5177
X4.2984Y-4.5413
X4.3812Y-3.5177
X4.3812Y-4.5413
X4.464Y-3.5177
X4.464Y-4.5413
X4.6692Y-2.6602
X4.6692Y-3.6838
X4.7908Y-2.6604
X4.7908Y-3.684
X5.0757Y-3.5176
X5.0757Y-4.5413
X5.1585Y-3.4348
X5.1585Y-3.5176
X5.1585Y-4.4585
X5.1585Y-4.5413
X5.3221Y-3.5181
X5.3222Y-4.5417
X5.4049Y-3.5181
X5.405Y-4.5417
X5.4877Y-3.5181
X5.4878Y-4.5417
X5.5597Y-2.6607
X5.5599Y-3.6843
X5.6932Y-2.6605
X5.6934Y-3.6841
X5.8149Y-2.6606
X5.815Y-3.6842
X5.9697Y-2.6607
X5.9698Y-3.6843
X6.099Y-3.5181
X6.0991Y-4.5417
X6.1819Y-3.4353
X6.1819Y-3.5181
X6.182Y-4.4589
X6.182Y-4.5417
X6.347Y-3.5181
X6.3471Y-4.5418
X6.4298Y-3.5181
X6.43Y-4.5418
X6.5127Y-3.5181
X6.5128Y-4.5418
X6.6127Y-2.66
X6.6128Y-3.6836
X7.0226Y-2.66
X7.0228Y-3.6836
T2
G00X4.5458Y-3.363
M15
G01X4.5458Y-3.3394
M16
G05
G00X4.5458Y-3.5126
M15
G01X4.5458Y-3.489
M16
G05
G00X4.5458Y-4.3866
M15
G01X4.5458Y-4.363
M16
G05
G00X4.5458Y-4.5362
M15
G01X4.5458Y-4.5126
M16
G05
G00X4.8859Y-3.363
M15
G01X4.8859Y-3.3394
M16
G05
G00X4.8859Y-3.5126
M15
G01X4.8859Y-3.489
M16
G05
G00X4.8859Y-4.3866
M15
G01X4.8859Y-4.363
M16
G05
G00X4.8859Y-4.5362
M15
G01X4.8859Y-4.5126
M16
G05
M30
