%TF.GenerationSoftware,KiCad,Pcbnew,8.0.5*%
%TF.CreationDate,2024-11-09T23:01:36+01:00*%
%TF.ProjectId,NanoSumo_Mouse_Bites_Gerber_File,4e616e6f-5375-46d6-9f5f-4d6f7573655f,rev?*%
%TF.SameCoordinates,Original*%
%TF.FileFunction,Paste,Top*%
%TF.FilePolarity,Positive*%
%FSLAX46Y46*%
G04 Gerber Fmt 4.6, Leading zero omitted, Abs format (unit mm)*
G04 Created by KiCad (PCBNEW 8.0.5) date 2024-11-09 23:01:36*
%MOMM*%
%LPD*%
G01*
G04 APERTURE LIST*
G04 Aperture macros list*
%AMRoundRect*
0 Rectangle with rounded corners*
0 $1 Rounding radius*
0 $2 $3 $4 $5 $6 $7 $8 $9 X,Y pos of 4 corners*
0 Add a 4 corners polygon primitive as box body*
4,1,4,$2,$3,$4,$5,$6,$7,$8,$9,$2,$3,0*
0 Add four circle primitives for the rounded corners*
1,1,$1+$1,$2,$3*
1,1,$1+$1,$4,$5*
1,1,$1+$1,$6,$7*
1,1,$1+$1,$8,$9*
0 Add four rect primitives between the rounded corners*
20,1,$1+$1,$2,$3,$4,$5,0*
20,1,$1+$1,$4,$5,$6,$7,0*
20,1,$1+$1,$6,$7,$8,$9,0*
20,1,$1+$1,$8,$9,$2,$3,0*%
%AMRotRect*
0 Rectangle, with rotation*
0 The origin of the aperture is its center*
0 $1 length*
0 $2 width*
0 $3 Rotation angle, in degrees counterclockwise*
0 Add horizontal line*
21,1,$1,$2,0,0,$3*%
%AMFreePoly0*
4,1,6,0.325000,0.000000,0.325000,-0.150000,-0.175000,-0.150000,-0.175000,0.150000,0.175000,0.150000,0.325000,0.000000,0.325000,0.000000,$1*%
%AMFreePoly1*
4,1,6,0.325000,0.000000,0.175000,-0.150000,-0.175000,-0.150000,-0.175000,0.150000,0.325000,0.150000,0.325000,0.000000,0.325000,0.000000,$1*%
%AMFreePoly2*
4,1,6,0.150000,-0.175000,-0.150000,-0.175000,-0.150000,0.175000,0.000000,0.325000,0.150000,0.325000,0.150000,-0.175000,0.150000,-0.175000,$1*%
%AMFreePoly3*
4,1,6,0.150000,0.175000,0.150000,-0.175000,-0.150000,-0.175000,-0.150000,0.325000,0.000000,0.325000,0.150000,0.175000,0.150000,0.175000,$1*%
%AMFreePoly4*
4,1,6,0.175000,-0.150000,-0.175000,-0.150000,-0.325000,0.000000,-0.325000,0.150000,0.175000,0.150000,0.175000,-0.150000,0.175000,-0.150000,$1*%
%AMFreePoly5*
4,1,7,0.175000,-0.150000,-0.175000,-0.150000,-0.325000,-0.150000,-0.325000,0.000000,-0.175000,0.150000,0.175000,0.150000,0.175000,-0.150000,0.175000,-0.150000,$1*%
%AMFreePoly6*
4,1,6,0.150000,-0.175000,0.000000,-0.325000,-0.150000,-0.325000,-0.150000,0.175000,0.150000,0.175000,0.150000,-0.175000,0.150000,-0.175000,$1*%
%AMFreePoly7*
4,1,6,0.150000,-0.325000,0.000000,-0.325000,-0.150000,-0.175000,-0.150000,0.175000,0.150000,0.175000,0.150000,-0.325000,0.150000,-0.325000,$1*%
G04 Aperture macros list end*
%ADD10RoundRect,0.079500X-0.100500X0.079500X-0.100500X-0.079500X0.100500X-0.079500X0.100500X0.079500X0*%
%ADD11RoundRect,0.175000X0.175000X0.325000X-0.175000X0.325000X-0.175000X-0.325000X0.175000X-0.325000X0*%
%ADD12RoundRect,0.079500X0.100500X-0.079500X0.100500X0.079500X-0.100500X0.079500X-0.100500X-0.079500X0*%
%ADD13FreePoly0,45.000000*%
%ADD14RotRect,0.700000X0.300000X45.000000*%
%ADD15FreePoly1,45.000000*%
%ADD16FreePoly2,45.000000*%
%ADD17RotRect,0.300000X0.700000X45.000000*%
%ADD18FreePoly3,45.000000*%
%ADD19FreePoly4,45.000000*%
%ADD20FreePoly5,45.000000*%
%ADD21FreePoly6,45.000000*%
%ADD22FreePoly7,45.000000*%
%ADD23RoundRect,0.079500X0.079500X0.100500X-0.079500X0.100500X-0.079500X-0.100500X0.079500X-0.100500X0*%
%ADD24RoundRect,0.079500X-0.079500X-0.100500X0.079500X-0.100500X0.079500X0.100500X-0.079500X0.100500X0*%
%ADD25RoundRect,0.117475X0.153035X-0.117475X0.153035X0.117475X-0.153035X0.117475X-0.153035X-0.117475X0*%
%ADD26R,1.500000X1.500000*%
%ADD27RoundRect,0.140000X-0.140000X-0.170000X0.140000X-0.170000X0.140000X0.170000X-0.140000X0.170000X0*%
%ADD28RoundRect,0.079500X-0.014849X0.127279X-0.127279X0.014849X0.014849X-0.127279X0.127279X-0.014849X0*%
%ADD29R,2.000000X2.000000*%
%ADD30R,0.725000X0.700000*%
%ADD31RoundRect,0.079500X0.127279X0.014849X0.014849X0.127279X-0.127279X-0.014849X-0.014849X-0.127279X0*%
%ADD32R,2.300000X1.400000*%
G04 APERTURE END LIST*
D10*
%TO.C,R24*%
X136560552Y-96856050D03*
X136560552Y-97546046D03*
%TD*%
D11*
%TO.C,U8*%
X137540952Y-112733048D03*
X138490952Y-112733048D03*
X139440952Y-112733048D03*
X139440952Y-111133048D03*
X137540952Y-111133048D03*
%TD*%
D12*
%TO.C,C11*%
X156118552Y-96530049D03*
X156118552Y-95840047D03*
%TD*%
D13*
%TO.C,U1*%
X139684262Y-80731723D03*
D14*
X140161560Y-80961533D03*
X140515113Y-81315087D03*
X140868667Y-81668640D03*
D15*
X141098476Y-82145938D03*
D16*
X141770227Y-82145938D03*
D17*
X142000037Y-81668640D03*
X142353591Y-81315087D03*
X142707144Y-80961533D03*
D18*
X143184442Y-80731724D03*
D19*
X143184442Y-80059973D03*
D14*
X142707144Y-79830163D03*
X142353591Y-79476609D03*
X142000037Y-79123056D03*
D20*
X141770228Y-78645758D03*
D21*
X141098477Y-78645758D03*
D17*
X140868667Y-79123056D03*
X140515113Y-79476609D03*
X140161560Y-79830163D03*
D22*
X139684262Y-80059972D03*
%TD*%
D23*
%TO.C,R12*%
X137359750Y-76077848D03*
X136669754Y-76077848D03*
%TD*%
%TO.C,R13*%
X137359750Y-77347848D03*
X136669754Y-77347848D03*
%TD*%
D24*
%TO.C,C16*%
X136872954Y-84002648D03*
X137562950Y-84002648D03*
%TD*%
D25*
%TO.C,LED1*%
X120211386Y-84028505D03*
X119352866Y-84028505D03*
X119352866Y-85059745D03*
X120211386Y-85059745D03*
%TD*%
D13*
%TO.C,U1*%
X139687262Y-106731723D03*
D14*
X140164560Y-106961533D03*
X140518113Y-107315087D03*
X140871667Y-107668640D03*
D15*
X141101476Y-108145938D03*
D16*
X141773227Y-108145938D03*
D17*
X142003037Y-107668640D03*
X142356591Y-107315087D03*
X142710144Y-106961533D03*
D18*
X143187442Y-106731724D03*
D19*
X143187442Y-106059973D03*
D14*
X142710144Y-105830163D03*
X142356591Y-105476609D03*
X142003037Y-105123056D03*
D20*
X141773228Y-104645758D03*
D21*
X141101477Y-104645758D03*
D17*
X140871667Y-105123056D03*
X140518113Y-105476609D03*
X140164560Y-105830163D03*
D22*
X139687262Y-106059972D03*
%TD*%
D11*
%TO.C,U8*%
X137537952Y-86733048D03*
X138487952Y-86733048D03*
X139437952Y-86733048D03*
X139437952Y-85133048D03*
X137537952Y-85133048D03*
%TD*%
D23*
%TO.C,R13*%
X137362750Y-103347848D03*
X136672754Y-103347848D03*
%TD*%
D26*
%TO.C,SWCLK*%
X136455952Y-81361048D03*
%TD*%
D24*
%TO.C,R18*%
X111690123Y-80654125D03*
X112380129Y-80654125D03*
%TD*%
D23*
%TO.C,R23*%
X155088950Y-73944248D03*
X154398954Y-73944248D03*
%TD*%
D27*
%TO.C,C9*%
X149034552Y-104567048D03*
X149994552Y-104567048D03*
%TD*%
D24*
%TO.C,C16*%
X136875954Y-110002648D03*
X137565950Y-110002648D03*
%TD*%
D28*
%TO.C,R21*%
X144881703Y-107472697D03*
X144393801Y-107960599D03*
%TD*%
%TO.C,R6*%
X140372136Y-82805385D03*
X139884230Y-83293289D03*
%TD*%
D10*
%TO.C,R9*%
X127148126Y-88691127D03*
X127148126Y-89381123D03*
%TD*%
D23*
%TO.C,C15*%
X139242350Y-113863448D03*
X138552354Y-113863448D03*
%TD*%
D12*
%TO.C,C11*%
X156115552Y-70530049D03*
X156115552Y-69840047D03*
%TD*%
D29*
%TO.C,BAT-*%
X109495126Y-99034309D03*
%TD*%
D28*
%TO.C,R6*%
X140375136Y-108805385D03*
X139887230Y-109293289D03*
%TD*%
D10*
%TO.C,R24*%
X136557552Y-70856050D03*
X136557552Y-71546046D03*
%TD*%
D30*
%TO.C,U3*%
X153956194Y-68522021D03*
X155031195Y-68522020D03*
X156106194Y-68522020D03*
X157181196Y-68522019D03*
%TD*%
%TO.C,U3*%
X153959194Y-94522021D03*
X155034195Y-94522020D03*
X156109194Y-94522020D03*
X157184196Y-94522019D03*
%TD*%
D28*
%TO.C,R21*%
X144878703Y-81472697D03*
X144390801Y-81960599D03*
%TD*%
D24*
%TO.C,R18*%
X111690123Y-106654309D03*
X112380129Y-106654309D03*
%TD*%
D12*
%TO.C,C10*%
X157185352Y-96530047D03*
X157185352Y-95840049D03*
%TD*%
D31*
%TO.C,C4*%
X139908161Y-108107894D03*
X139420261Y-107619994D03*
%TD*%
%TO.C,C4*%
X139905161Y-82107894D03*
X139417261Y-81619994D03*
%TD*%
D10*
%TO.C,R9*%
X127148126Y-114691311D03*
X127148126Y-115381307D03*
%TD*%
D12*
%TO.C,R17*%
X111654126Y-108269310D03*
X111654126Y-107579308D03*
%TD*%
D23*
%TO.C,R10*%
X124460924Y-82799525D03*
X123770928Y-82799525D03*
%TD*%
%TO.C,R12*%
X137362750Y-102077848D03*
X136672754Y-102077848D03*
%TD*%
D12*
%TO.C,R11*%
X131016500Y-85187977D03*
X131016500Y-84497981D03*
%TD*%
D23*
%TO.C,R10*%
X124460924Y-108799709D03*
X123770928Y-108799709D03*
%TD*%
D32*
%TO.C,SW1*%
X115623126Y-106670309D03*
X124573126Y-106670309D03*
X115623126Y-102170309D03*
X124573126Y-102170309D03*
%TD*%
D26*
%TO.C,SWDIO*%
X136455952Y-79430648D03*
%TD*%
%TO.C,SWCLK*%
X136458952Y-107361048D03*
%TD*%
D32*
%TO.C,SW1*%
X115623126Y-80670125D03*
X124573126Y-80670125D03*
X115623126Y-76170125D03*
X124573126Y-76170125D03*
%TD*%
D23*
%TO.C,R22*%
X146506125Y-81496030D03*
X145816129Y-81496030D03*
%TD*%
%TO.C,R23*%
X155091950Y-99944248D03*
X154401954Y-99944248D03*
%TD*%
D12*
%TO.C,R11*%
X131016500Y-111188161D03*
X131016500Y-110498165D03*
%TD*%
D23*
%TO.C,C15*%
X139239350Y-87863448D03*
X138549354Y-87863448D03*
%TD*%
D12*
%TO.C,C10*%
X157182352Y-70530047D03*
X157182352Y-69840049D03*
%TD*%
D31*
%TO.C,C5*%
X139297504Y-108718551D03*
X138809604Y-108230651D03*
%TD*%
D10*
%TO.C,C14*%
X113305126Y-76118124D03*
X113305126Y-76808126D03*
%TD*%
D26*
%TO.C,SWDIO*%
X136458952Y-105430648D03*
%TD*%
D25*
%TO.C,LED1*%
X120211386Y-110028689D03*
X119352866Y-110028689D03*
X119352866Y-111059929D03*
X120211386Y-111059929D03*
%TD*%
D29*
%TO.C,BAT-*%
X109495126Y-73034125D03*
%TD*%
D27*
%TO.C,C9*%
X149031552Y-78567048D03*
X149991552Y-78567048D03*
%TD*%
D10*
%TO.C,C14*%
X113305126Y-102118308D03*
X113305126Y-102808310D03*
%TD*%
D31*
%TO.C,C5*%
X139294504Y-82718551D03*
X138806604Y-82230651D03*
%TD*%
D23*
%TO.C,R22*%
X146509125Y-107496030D03*
X145819129Y-107496030D03*
%TD*%
D12*
%TO.C,R17*%
X111654126Y-82269126D03*
X111654126Y-81579124D03*
%TD*%
D30*
%TO.C,U7*%
X135030852Y-68508198D03*
X136105853Y-68508197D03*
X137180852Y-68508197D03*
X138255854Y-68508196D03*
%TD*%
%TO.C,U7*%
X135033852Y-94508198D03*
X136108853Y-94508197D03*
X137183852Y-94508197D03*
X138258854Y-94508196D03*
%TD*%
M02*
