%TF.GenerationSoftware,KiCad,Pcbnew,8.0.5*%
%TF.CreationDate,2024-11-09T23:01:36+01:00*%
%TF.ProjectId,NanoSumo_Mouse_Bites_Gerber_File,4e616e6f-5375-46d6-9f5f-4d6f7573655f,rev?*%
%TF.SameCoordinates,Original*%
%TF.FileFunction,Profile,NP*%
%FSLAX46Y46*%
G04 Gerber Fmt 4.6, Leading zero omitted, Abs format (unit mm)*
G04 Created by KiCad (PCBNEW 8.0.5) date 2024-11-09 23:01:36*
%MOMM*%
%LPD*%
G01*
G04 APERTURE LIST*
%TA.AperFunction,Profile*%
%ADD10C,0.050000*%
%TD*%
%TA.AperFunction,Profile*%
%ADD11C,0.010050*%
%TD*%
G04 APERTURE END LIST*
D10*
X134106352Y-116440448D02*
X134106352Y-112444000D01*
X106106999Y-72444000D02*
X106106999Y-94444000D01*
X160155590Y-111534000D02*
X160109999Y-111444000D01*
X148107000Y-64444000D02*
X148304000Y-64444000D01*
X134103352Y-74440448D02*
X134103352Y-67940448D01*
X171012000Y-92421590D02*
X171110000Y-92444000D01*
X132109999Y-116431000D02*
X122244000Y-116431000D01*
X148107000Y-86444000D02*
X148107000Y-90444000D01*
X139106352Y-93940448D02*
X134106352Y-93940448D01*
X184855590Y-99444000D02*
X184855590Y-98443999D01*
X153106352Y-93940448D02*
X158106352Y-93940448D01*
X132106999Y-85444000D02*
X132106999Y-90431000D01*
X110107002Y-100430998D02*
X108107000Y-100431000D01*
X184852590Y-73444000D02*
X184852590Y-72443999D01*
X139106352Y-92440448D02*
X139106352Y-93940448D01*
X136103352Y-77440448D02*
X136103352Y-74440448D01*
X160107001Y-81444000D02*
X160107001Y-80421590D01*
X122204000Y-66431000D02*
X122107000Y-66444000D01*
X139103352Y-66440448D02*
X139103352Y-67940448D01*
X118004000Y-90431000D02*
X118110000Y-90444000D01*
D11*
X172510615Y-104421590D02*
G75*
G02*
X172500565Y-104421590I-5025J0D01*
G01*
X172500565Y-104421590D02*
G75*
G02*
X172510615Y-104421590I5025J0D01*
G01*
D10*
X153106352Y-92440448D02*
X153106352Y-93940448D01*
X106104000Y-64444000D02*
X106104000Y-68444000D01*
X158109999Y-111444000D02*
X158109999Y-116440448D01*
X158103352Y-90440448D02*
X150603352Y-90440448D01*
X134110001Y-107444000D02*
X134110001Y-103440448D01*
D11*
X172507615Y-78421590D02*
G75*
G02*
X172497565Y-78421590I-5025J0D01*
G01*
X172497565Y-78421590D02*
G75*
G02*
X172507615Y-78421590I5025J0D01*
G01*
D10*
X141603352Y-90440448D02*
X141603352Y-84440448D01*
X170554800Y-66421590D02*
X171107000Y-66444000D01*
X108304000Y-90431000D02*
X108104000Y-90431000D01*
X160204000Y-80421590D02*
X160107001Y-80421590D01*
X108107000Y-93444000D02*
X108107000Y-92585600D01*
X166852590Y-80421590D02*
X166852590Y-80344000D01*
X171107000Y-64444000D02*
X148304000Y-64444000D01*
X118004000Y-66444000D02*
X108104000Y-66444000D01*
X153103352Y-66440448D02*
X153103352Y-67940448D01*
X184855590Y-92421590D02*
X184855590Y-94443999D01*
X122110000Y-118444000D02*
X144110000Y-118444000D01*
X186850755Y-68443999D02*
X186850755Y-64444000D01*
X148110000Y-92444000D02*
X153106352Y-92444000D01*
X169107000Y-90421590D02*
X160152590Y-90421590D01*
X116107000Y-116431000D02*
X108107000Y-116431000D01*
X132104000Y-66431000D02*
X132104000Y-79444000D01*
X148107000Y-66444000D02*
X153103352Y-66444000D01*
X108104000Y-67444000D02*
X108104000Y-66444000D01*
X134103352Y-77440448D02*
X136103352Y-77440448D01*
X184855590Y-92421590D02*
X176110000Y-92421590D01*
X166948000Y-92421590D02*
X166855590Y-92421590D01*
X166855590Y-106421590D02*
X166855590Y-92421590D01*
X178152590Y-90421590D02*
X175204000Y-90421590D01*
X160204000Y-80421590D02*
X166852590Y-80421590D01*
X110104000Y-77431000D02*
X108104000Y-77431000D01*
X160152590Y-86444000D02*
X160152590Y-90421590D01*
X176004000Y-66421590D02*
X175304000Y-66421590D01*
X108104000Y-72621200D02*
X108106999Y-74431000D01*
X110107000Y-103431000D02*
X110107002Y-100430998D01*
X184855590Y-102421590D02*
X178155590Y-102421590D01*
X118107000Y-64444000D02*
X106104000Y-64444000D01*
X186853755Y-118444000D02*
X186853755Y-98544000D01*
X108107000Y-103431000D02*
X108107000Y-116431000D01*
X184852590Y-73444000D02*
X184852590Y-76421590D01*
X175304000Y-66421590D02*
X175107000Y-66444000D01*
X141603352Y-84440448D02*
X143107000Y-84440448D01*
X160152590Y-86444000D02*
X160152590Y-85644000D01*
X108106999Y-72444000D02*
X108104000Y-72621200D01*
X122193200Y-92433200D02*
X122110000Y-92444000D01*
X160191600Y-106421590D02*
X166855590Y-106421590D01*
X166852590Y-80344000D02*
X166852590Y-66421590D01*
X134107001Y-81444000D02*
X134107001Y-77440448D01*
X158106999Y-85444000D02*
X158106999Y-90440448D01*
X141603352Y-90440448D02*
X134103352Y-90440448D01*
X184852590Y-66421590D02*
X184852590Y-68443999D01*
X184852590Y-76421590D02*
X178152590Y-76421590D01*
X175228400Y-92421590D02*
X175110000Y-92444000D01*
X158106352Y-116440448D02*
X150606352Y-116440448D01*
X139103352Y-66440448D02*
X143107000Y-66440448D01*
X176110000Y-92421590D02*
X175228400Y-92421590D01*
X178155590Y-116421590D02*
X178155590Y-102421590D01*
X158103352Y-67940448D02*
X158103352Y-80444000D01*
X136103352Y-74440448D02*
X134103352Y-74440448D01*
X148110000Y-110444000D02*
X150606352Y-110444000D01*
X160110001Y-107444000D02*
X160110001Y-106421590D01*
X148110000Y-118444000D02*
X171012000Y-118444000D01*
X134106352Y-112444000D02*
X134106352Y-111444000D01*
X122204000Y-90431000D02*
X122110000Y-90444000D01*
X110107000Y-103431000D02*
X108107000Y-103431000D01*
X106191200Y-118444000D02*
X117875200Y-118444000D01*
X132104000Y-79444000D02*
X132104000Y-81344000D01*
X160152590Y-85644000D02*
X160106999Y-85444000D01*
X108104000Y-67444000D02*
X108104000Y-68444000D01*
X106104000Y-98444000D02*
X106104000Y-118444000D01*
X153103352Y-67940448D02*
X158103352Y-67940448D01*
X132104000Y-90431000D02*
X124107000Y-90431000D01*
X124107000Y-66431000D02*
X122204000Y-66431000D01*
X148110000Y-112444000D02*
X148110000Y-116444000D01*
X176004000Y-66421590D02*
X176107000Y-66421590D01*
X110104000Y-77431000D02*
X110104002Y-74430998D01*
X169107000Y-116421590D02*
X171012000Y-116421590D01*
X132109999Y-111444000D02*
X132109999Y-116431000D01*
X132107000Y-105444000D02*
X132107000Y-107444000D01*
X173552590Y-78421590D02*
G75*
G02*
X171452590Y-78421590I-1050000J0D01*
G01*
X171452590Y-78421590D02*
G75*
G02*
X173552590Y-78421590I1050000J0D01*
G01*
X132104000Y-81344000D02*
X132107001Y-81444000D01*
X118004000Y-118444000D02*
X118110000Y-118444000D01*
X171012000Y-118444000D02*
X171110000Y-118444000D01*
X184852590Y-66421590D02*
X176107000Y-66421590D01*
X171004000Y-90421590D02*
X171110000Y-90444000D01*
X108104000Y-77544000D02*
X108104000Y-90431000D01*
X108107000Y-92585600D02*
X108107000Y-92444000D01*
X122244000Y-116431000D02*
X122110000Y-116444000D01*
X106191200Y-118444000D02*
X106104000Y-118444000D01*
X143110000Y-110440448D02*
X144110000Y-110440448D01*
X148204000Y-84444000D02*
X148107000Y-84444000D01*
X144107000Y-64444000D02*
X122107000Y-64444000D01*
X134106352Y-100440448D02*
X134106352Y-93940448D01*
X132107000Y-92431000D02*
X124110000Y-92431000D01*
X178155590Y-116421590D02*
X175228400Y-116421590D01*
X118110000Y-92444000D02*
X108107000Y-92444000D01*
X141606352Y-116440448D02*
X134106352Y-116440448D01*
X158103352Y-80444000D02*
X158103352Y-81444000D01*
X144110000Y-90444000D02*
X144110000Y-86444000D01*
X132107000Y-92431000D02*
X132107000Y-105444000D01*
X148204000Y-84444000D02*
X150603352Y-84444000D01*
X184855590Y-99444000D02*
X184855590Y-102421590D01*
X173555590Y-104421590D02*
G75*
G02*
X171455590Y-104421590I-1050000J0D01*
G01*
X171455590Y-104421590D02*
G75*
G02*
X173555590Y-104421590I1050000J0D01*
G01*
X132104000Y-66431000D02*
X124107000Y-66431000D01*
X108107000Y-93444000D02*
X108107000Y-94444000D01*
X178152590Y-90421590D02*
X178152590Y-76421590D01*
X150603352Y-84440448D02*
X150603352Y-90440448D01*
X141606352Y-110440448D02*
X143110000Y-110440448D01*
X139106352Y-92440448D02*
X143110000Y-92440448D01*
X141606352Y-116440448D02*
X141606352Y-110440448D01*
X160191600Y-106421590D02*
X160110001Y-106421590D01*
X150606352Y-110440448D02*
X150606352Y-116440448D01*
X117976800Y-116431000D02*
X118110000Y-116444000D01*
X144110000Y-112550000D02*
X144110000Y-112444000D01*
X158106352Y-106444000D02*
X158106352Y-107444000D01*
X144110000Y-116444000D02*
X144110000Y-112550000D01*
X171012000Y-116421590D02*
X171110000Y-116444000D01*
X166948000Y-92421590D02*
X171012000Y-92421590D01*
X143110000Y-92440448D02*
X144110000Y-92440448D01*
X117875200Y-118444000D02*
X118004000Y-118444000D01*
X136106352Y-103440448D02*
X136106352Y-100440448D01*
X186853755Y-94443999D02*
X186853755Y-72443999D01*
X116107000Y-116431000D02*
X117976800Y-116431000D01*
X175110000Y-118444000D02*
X186853755Y-118444000D01*
X175204000Y-90421590D02*
X175110000Y-90444000D01*
X169107000Y-90421590D02*
X171004000Y-90421590D01*
X118004000Y-66444000D02*
X118107000Y-66444000D01*
X108304000Y-74431000D02*
X108106999Y-74431000D01*
X134106352Y-103440448D02*
X136106352Y-103440448D01*
X166904000Y-66421590D02*
X166852590Y-66421590D01*
X108104000Y-77431000D02*
X108104000Y-77544000D01*
X96104000Y-59444000D02*
X197104000Y-59444000D01*
X197104000Y-123444000D01*
X96104000Y-123444000D01*
X96104000Y-59444000D01*
X158106352Y-93940448D02*
X158106352Y-106444000D01*
X110104002Y-74430998D02*
X108304000Y-74431000D01*
X108109999Y-98444000D02*
X108109999Y-100431000D01*
X124107000Y-90431000D02*
X122204000Y-90431000D01*
X139103352Y-67940448D02*
X134103352Y-67940448D01*
X186850755Y-64444000D02*
X175107000Y-64444000D01*
X134103352Y-86444000D02*
X134103352Y-85444000D01*
X169107000Y-116421590D02*
X160155590Y-116421590D01*
X124110000Y-92431000D02*
X122193200Y-92433200D01*
X136106352Y-100440448D02*
X134106352Y-100440448D01*
X160155590Y-112444000D02*
X160155590Y-116421590D01*
X108304000Y-90431000D02*
X118004000Y-90431000D01*
X143107000Y-84440448D02*
X144107000Y-84440448D01*
X143107000Y-66440448D02*
X144107000Y-66440448D01*
X134103352Y-90440448D02*
X134103352Y-86444000D01*
X166904000Y-66421590D02*
X170554800Y-66421590D01*
X175228400Y-116421590D02*
X175110000Y-116444000D01*
X186853753Y-98443999D02*
X186853755Y-98544000D01*
X160155590Y-112444000D02*
X160155590Y-111534000D01*
%TO.C,mouse-bite-2mm-slot*%
X132109999Y-111444000D02*
G75*
G02*
X134109999Y-111444000I1000000J1D01*
G01*
X134110001Y-107444000D02*
G75*
G02*
X132109999Y-107444000I-1000001J0D01*
G01*
X171110000Y-116444000D02*
G75*
G02*
X171110000Y-118444000I0J-1000000D01*
G01*
X175110000Y-118444000D02*
G75*
G02*
X175110000Y-116444000I0J1000000D01*
G01*
X106106999Y-72444000D02*
G75*
G02*
X108106999Y-72444000I1000000J1D01*
G01*
X108107001Y-68444000D02*
G75*
G02*
X106106999Y-68444000I-1000001J0D01*
G01*
X118107000Y-64444000D02*
G75*
G02*
X118107000Y-66444000I0J-1000000D01*
G01*
X122107000Y-66444000D02*
G75*
G02*
X122107000Y-64444000I0J1000000D01*
G01*
X144110000Y-90444000D02*
G75*
G02*
X144110000Y-92444000I0J-1000000D01*
G01*
X148110000Y-92444000D02*
G75*
G02*
X148110000Y-90444000I0J1000000D01*
G01*
X118110000Y-90444000D02*
G75*
G02*
X118110000Y-92444000I0J-1000000D01*
G01*
X122110000Y-92444000D02*
G75*
G02*
X122110000Y-90444000I0J1000000D01*
G01*
X144110000Y-116444000D02*
G75*
G02*
X144110000Y-118444000I0J-1000000D01*
G01*
X148110000Y-118444000D02*
G75*
G02*
X148110000Y-116444000I0J1000000D01*
G01*
X158106999Y-85444000D02*
G75*
G02*
X160106999Y-85444000I1000000J1D01*
G01*
X160107001Y-81444000D02*
G75*
G02*
X158106999Y-81444000I-1000001J0D01*
G01*
X144110000Y-110444000D02*
G75*
G02*
X144110000Y-112444000I0J-1000000D01*
G01*
X148110000Y-112444000D02*
G75*
G02*
X148110000Y-110444000I0J1000000D01*
G01*
X184850753Y-72443999D02*
G75*
G02*
X186850753Y-72443999I1000000J1D01*
G01*
X186850755Y-68443999D02*
G75*
G02*
X184850753Y-68443999I-1000001J0D01*
G01*
X158109999Y-111444000D02*
G75*
G02*
X160109999Y-111444000I1000000J1D01*
G01*
X160110001Y-107444000D02*
G75*
G02*
X158109999Y-107444000I-1000001J0D01*
G01*
X132106999Y-85444000D02*
G75*
G02*
X134106999Y-85444000I1000000J1D01*
G01*
X134107001Y-81444000D02*
G75*
G02*
X132106999Y-81444000I-1000001J0D01*
G01*
X171110000Y-90444000D02*
G75*
G02*
X171110000Y-92444000I0J-1000000D01*
G01*
X175110000Y-92444000D02*
G75*
G02*
X175110000Y-90444000I0J1000000D01*
G01*
X106109999Y-98444000D02*
G75*
G02*
X108109999Y-98444000I1000000J1D01*
G01*
X108110001Y-94444000D02*
G75*
G02*
X106109999Y-94444000I-1000001J0D01*
G01*
X184853753Y-98443999D02*
G75*
G02*
X186853753Y-98443999I1000000J1D01*
G01*
X186853755Y-94443999D02*
G75*
G02*
X184853753Y-94443999I-1000001J0D01*
G01*
X118110000Y-116444000D02*
G75*
G02*
X118110000Y-118444000I0J-1000000D01*
G01*
X122110000Y-118444000D02*
G75*
G02*
X122110000Y-116444000I0J1000000D01*
G01*
X171107000Y-64444000D02*
G75*
G02*
X171107000Y-66444000I0J-1000000D01*
G01*
X175107000Y-66444000D02*
G75*
G02*
X175107000Y-64444000I0J1000000D01*
G01*
X144107000Y-64444000D02*
G75*
G02*
X144107000Y-66444000I0J-1000000D01*
G01*
X148107000Y-66444000D02*
G75*
G02*
X148107000Y-64444000I0J1000000D01*
G01*
X144107000Y-84444000D02*
G75*
G02*
X144107000Y-86444000I0J-1000000D01*
G01*
X148107000Y-86444000D02*
G75*
G02*
X148107000Y-84444000I0J1000000D01*
G01*
%TD*%
M02*
