%TF.GenerationSoftware,KiCad,Pcbnew,8.0.5*%
%TF.CreationDate,2024-11-09T23:01:36+01:00*%
%TF.ProjectId,NanoSumo_Mouse_Bites_Gerber_File,4e616e6f-5375-46d6-9f5f-4d6f7573655f,rev?*%
%TF.SameCoordinates,Original*%
%TF.FileFunction,Soldermask,Top*%
%TF.FilePolarity,Negative*%
%FSLAX46Y46*%
G04 Gerber Fmt 4.6, Leading zero omitted, Abs format (unit mm)*
G04 Created by KiCad (PCBNEW 8.0.5) date 2024-11-09 23:01:36*
%MOMM*%
%LPD*%
G01*
G04 APERTURE LIST*
G04 Aperture macros list*
%AMRoundRect*
0 Rectangle with rounded corners*
0 $1 Rounding radius*
0 $2 $3 $4 $5 $6 $7 $8 $9 X,Y pos of 4 corners*
0 Add a 4 corners polygon primitive as box body*
4,1,4,$2,$3,$4,$5,$6,$7,$8,$9,$2,$3,0*
0 Add four circle primitives for the rounded corners*
1,1,$1+$1,$2,$3*
1,1,$1+$1,$4,$5*
1,1,$1+$1,$6,$7*
1,1,$1+$1,$8,$9*
0 Add four rect primitives between the rounded corners*
20,1,$1+$1,$2,$3,$4,$5,0*
20,1,$1+$1,$4,$5,$6,$7,0*
20,1,$1+$1,$6,$7,$8,$9,0*
20,1,$1+$1,$8,$9,$2,$3,0*%
%AMRotRect*
0 Rectangle, with rotation*
0 The origin of the aperture is its center*
0 $1 length*
0 $2 width*
0 $3 Rotation angle, in degrees counterclockwise*
0 Add horizontal line*
21,1,$1,$2,0,0,$3*%
%AMFreePoly0*
4,1,6,0.325000,0.000000,0.325000,-0.150000,-0.175000,-0.150000,-0.175000,0.150000,0.175000,0.150000,0.325000,0.000000,0.325000,0.000000,$1*%
%AMFreePoly1*
4,1,6,0.325000,0.000000,0.175000,-0.150000,-0.175000,-0.150000,-0.175000,0.150000,0.325000,0.150000,0.325000,0.000000,0.325000,0.000000,$1*%
%AMFreePoly2*
4,1,6,0.150000,-0.175000,-0.150000,-0.175000,-0.150000,0.175000,0.000000,0.325000,0.150000,0.325000,0.150000,-0.175000,0.150000,-0.175000,$1*%
%AMFreePoly3*
4,1,6,0.150000,0.175000,0.150000,-0.175000,-0.150000,-0.175000,-0.150000,0.325000,0.000000,0.325000,0.150000,0.175000,0.150000,0.175000,$1*%
%AMFreePoly4*
4,1,6,0.175000,-0.150000,-0.175000,-0.150000,-0.325000,0.000000,-0.325000,0.150000,0.175000,0.150000,0.175000,-0.150000,0.175000,-0.150000,$1*%
%AMFreePoly5*
4,1,7,0.175000,-0.150000,-0.175000,-0.150000,-0.325000,-0.150000,-0.325000,0.000000,-0.175000,0.150000,0.175000,0.150000,0.175000,-0.150000,0.175000,-0.150000,$1*%
%AMFreePoly6*
4,1,6,0.150000,-0.175000,0.000000,-0.325000,-0.150000,-0.325000,-0.150000,0.175000,0.150000,0.175000,0.150000,-0.175000,0.150000,-0.175000,$1*%
%AMFreePoly7*
4,1,6,0.150000,-0.325000,0.000000,-0.325000,-0.150000,-0.175000,-0.150000,0.175000,0.150000,0.175000,0.150000,-0.325000,0.150000,-0.325000,$1*%
G04 Aperture macros list end*
%ADD10C,0.120000*%
%ADD11C,0.200000*%
%ADD12C,0.220000*%
%ADD13RoundRect,0.100000X-0.100000X0.130000X-0.100000X-0.130000X0.100000X-0.130000X0.100000X0.130000X0*%
%ADD14C,0.500000*%
%ADD15RoundRect,0.175000X0.175000X0.325000X-0.175000X0.325000X-0.175000X-0.325000X0.175000X-0.325000X0*%
%ADD16O,1.500000X1.500000*%
%ADD17RoundRect,0.100000X0.100000X-0.130000X0.100000X0.130000X-0.100000X0.130000X-0.100000X-0.130000X0*%
%ADD18FreePoly0,45.000000*%
%ADD19RotRect,0.700000X0.300000X45.000000*%
%ADD20FreePoly1,45.000000*%
%ADD21FreePoly2,45.000000*%
%ADD22RotRect,0.300000X0.700000X45.000000*%
%ADD23FreePoly3,45.000000*%
%ADD24FreePoly4,45.000000*%
%ADD25FreePoly5,45.000000*%
%ADD26FreePoly6,45.000000*%
%ADD27FreePoly7,45.000000*%
%ADD28R,1.700000X1.700000*%
%ADD29RoundRect,0.100000X0.130000X0.100000X-0.130000X0.100000X-0.130000X-0.100000X0.130000X-0.100000X0*%
%ADD30RoundRect,0.100000X-0.130000X-0.100000X0.130000X-0.100000X0.130000X0.100000X-0.130000X0.100000X0*%
%ADD31RoundRect,0.117475X0.153035X-0.117475X0.153035X0.117475X-0.153035X0.117475X-0.153035X-0.117475X0*%
%ADD32R,1.500000X1.500000*%
%ADD33RoundRect,0.140000X-0.140000X-0.170000X0.140000X-0.170000X0.140000X0.170000X-0.140000X0.170000X0*%
%ADD34RoundRect,0.100000X0.021213X0.162635X-0.162635X-0.021213X-0.021213X-0.162635X0.162635X0.021213X0*%
%ADD35R,2.000000X2.000000*%
%ADD36RoundRect,0.102000X0.362500X-0.350000X0.362500X0.350000X-0.362500X0.350000X-0.362500X-0.350000X0*%
%ADD37RoundRect,0.100000X0.162635X-0.021213X-0.021213X0.162635X-0.162635X0.021213X0.021213X-0.162635X0*%
%ADD38R,2.300000X1.400000*%
%ADD39O,1.200000X1.800000*%
G04 APERTURE END LIST*
D10*
X124627144Y-67124678D02*
X124698572Y-67148488D01*
X124698572Y-67148488D02*
X124722382Y-67172297D01*
X124722382Y-67172297D02*
X124746191Y-67219916D01*
X124746191Y-67219916D02*
X124746191Y-67291345D01*
X124746191Y-67291345D02*
X124722382Y-67338964D01*
X124722382Y-67338964D02*
X124698572Y-67362774D01*
X124698572Y-67362774D02*
X124650953Y-67386583D01*
X124650953Y-67386583D02*
X124460477Y-67386583D01*
X124460477Y-67386583D02*
X124460477Y-66886583D01*
X124460477Y-66886583D02*
X124627144Y-66886583D01*
X124627144Y-66886583D02*
X124674763Y-66910393D01*
X124674763Y-66910393D02*
X124698572Y-66934202D01*
X124698572Y-66934202D02*
X124722382Y-66981821D01*
X124722382Y-66981821D02*
X124722382Y-67029440D01*
X124722382Y-67029440D02*
X124698572Y-67077059D01*
X124698572Y-67077059D02*
X124674763Y-67100869D01*
X124674763Y-67100869D02*
X124627144Y-67124678D01*
X124627144Y-67124678D02*
X124460477Y-67124678D01*
X125031906Y-67386583D02*
X124984287Y-67362774D01*
X124984287Y-67362774D02*
X124960477Y-67338964D01*
X124960477Y-67338964D02*
X124936668Y-67291345D01*
X124936668Y-67291345D02*
X124936668Y-67148488D01*
X124936668Y-67148488D02*
X124960477Y-67100869D01*
X124960477Y-67100869D02*
X124984287Y-67077059D01*
X124984287Y-67077059D02*
X125031906Y-67053250D01*
X125031906Y-67053250D02*
X125103334Y-67053250D01*
X125103334Y-67053250D02*
X125150953Y-67077059D01*
X125150953Y-67077059D02*
X125174763Y-67100869D01*
X125174763Y-67100869D02*
X125198572Y-67148488D01*
X125198572Y-67148488D02*
X125198572Y-67291345D01*
X125198572Y-67291345D02*
X125174763Y-67338964D01*
X125174763Y-67338964D02*
X125150953Y-67362774D01*
X125150953Y-67362774D02*
X125103334Y-67386583D01*
X125103334Y-67386583D02*
X125031906Y-67386583D01*
X125627144Y-67386583D02*
X125627144Y-67124678D01*
X125627144Y-67124678D02*
X125603334Y-67077059D01*
X125603334Y-67077059D02*
X125555715Y-67053250D01*
X125555715Y-67053250D02*
X125460477Y-67053250D01*
X125460477Y-67053250D02*
X125412858Y-67077059D01*
X125627144Y-67362774D02*
X125579525Y-67386583D01*
X125579525Y-67386583D02*
X125460477Y-67386583D01*
X125460477Y-67386583D02*
X125412858Y-67362774D01*
X125412858Y-67362774D02*
X125389049Y-67315154D01*
X125389049Y-67315154D02*
X125389049Y-67267535D01*
X125389049Y-67267535D02*
X125412858Y-67219916D01*
X125412858Y-67219916D02*
X125460477Y-67196107D01*
X125460477Y-67196107D02*
X125579525Y-67196107D01*
X125579525Y-67196107D02*
X125627144Y-67172297D01*
X125865239Y-67386583D02*
X125865239Y-67053250D01*
X125865239Y-67148488D02*
X125889049Y-67100869D01*
X125889049Y-67100869D02*
X125912858Y-67077059D01*
X125912858Y-67077059D02*
X125960477Y-67053250D01*
X125960477Y-67053250D02*
X126008096Y-67053250D01*
X126389049Y-67386583D02*
X126389049Y-66886583D01*
X126389049Y-67362774D02*
X126341430Y-67386583D01*
X126341430Y-67386583D02*
X126246192Y-67386583D01*
X126246192Y-67386583D02*
X126198573Y-67362774D01*
X126198573Y-67362774D02*
X126174763Y-67338964D01*
X126174763Y-67338964D02*
X126150954Y-67291345D01*
X126150954Y-67291345D02*
X126150954Y-67148488D01*
X126150954Y-67148488D02*
X126174763Y-67100869D01*
X126174763Y-67100869D02*
X126198573Y-67077059D01*
X126198573Y-67077059D02*
X126246192Y-67053250D01*
X126246192Y-67053250D02*
X126341430Y-67053250D01*
X126341430Y-67053250D02*
X126389049Y-67077059D01*
X126603335Y-67362774D02*
X126650954Y-67386583D01*
X126650954Y-67386583D02*
X126746192Y-67386583D01*
X126746192Y-67386583D02*
X126793811Y-67362774D01*
X126793811Y-67362774D02*
X126817620Y-67315154D01*
X126817620Y-67315154D02*
X126817620Y-67291345D01*
X126817620Y-67291345D02*
X126793811Y-67243726D01*
X126793811Y-67243726D02*
X126746192Y-67219916D01*
X126746192Y-67219916D02*
X126674763Y-67219916D01*
X126674763Y-67219916D02*
X126627144Y-67196107D01*
X126627144Y-67196107D02*
X126603335Y-67148488D01*
X126603335Y-67148488D02*
X126603335Y-67124678D01*
X126603335Y-67124678D02*
X126627144Y-67077059D01*
X126627144Y-67077059D02*
X126674763Y-67053250D01*
X126674763Y-67053250D02*
X126746192Y-67053250D01*
X126746192Y-67053250D02*
X126793811Y-67077059D01*
X127627144Y-67386583D02*
X127627144Y-66886583D01*
X127627144Y-67362774D02*
X127579525Y-67386583D01*
X127579525Y-67386583D02*
X127484287Y-67386583D01*
X127484287Y-67386583D02*
X127436668Y-67362774D01*
X127436668Y-67362774D02*
X127412858Y-67338964D01*
X127412858Y-67338964D02*
X127389049Y-67291345D01*
X127389049Y-67291345D02*
X127389049Y-67148488D01*
X127389049Y-67148488D02*
X127412858Y-67100869D01*
X127412858Y-67100869D02*
X127436668Y-67077059D01*
X127436668Y-67077059D02*
X127484287Y-67053250D01*
X127484287Y-67053250D02*
X127579525Y-67053250D01*
X127579525Y-67053250D02*
X127627144Y-67077059D01*
X128055715Y-67362774D02*
X128008096Y-67386583D01*
X128008096Y-67386583D02*
X127912858Y-67386583D01*
X127912858Y-67386583D02*
X127865239Y-67362774D01*
X127865239Y-67362774D02*
X127841430Y-67315154D01*
X127841430Y-67315154D02*
X127841430Y-67124678D01*
X127841430Y-67124678D02*
X127865239Y-67077059D01*
X127865239Y-67077059D02*
X127912858Y-67053250D01*
X127912858Y-67053250D02*
X128008096Y-67053250D01*
X128008096Y-67053250D02*
X128055715Y-67077059D01*
X128055715Y-67077059D02*
X128079525Y-67124678D01*
X128079525Y-67124678D02*
X128079525Y-67172297D01*
X128079525Y-67172297D02*
X127841430Y-67219916D01*
X128270001Y-67362774D02*
X128317620Y-67386583D01*
X128317620Y-67386583D02*
X128412858Y-67386583D01*
X128412858Y-67386583D02*
X128460477Y-67362774D01*
X128460477Y-67362774D02*
X128484286Y-67315154D01*
X128484286Y-67315154D02*
X128484286Y-67291345D01*
X128484286Y-67291345D02*
X128460477Y-67243726D01*
X128460477Y-67243726D02*
X128412858Y-67219916D01*
X128412858Y-67219916D02*
X128341429Y-67219916D01*
X128341429Y-67219916D02*
X128293810Y-67196107D01*
X128293810Y-67196107D02*
X128270001Y-67148488D01*
X128270001Y-67148488D02*
X128270001Y-67124678D01*
X128270001Y-67124678D02*
X128293810Y-67077059D01*
X128293810Y-67077059D02*
X128341429Y-67053250D01*
X128341429Y-67053250D02*
X128412858Y-67053250D01*
X128412858Y-67053250D02*
X128460477Y-67077059D01*
X128698572Y-67386583D02*
X128698572Y-67053250D01*
X128698572Y-66886583D02*
X128674763Y-66910393D01*
X128674763Y-66910393D02*
X128698572Y-66934202D01*
X128698572Y-66934202D02*
X128722382Y-66910393D01*
X128722382Y-66910393D02*
X128698572Y-66886583D01*
X128698572Y-66886583D02*
X128698572Y-66934202D01*
X129150953Y-67053250D02*
X129150953Y-67458012D01*
X129150953Y-67458012D02*
X129127143Y-67505631D01*
X129127143Y-67505631D02*
X129103334Y-67529440D01*
X129103334Y-67529440D02*
X129055715Y-67553250D01*
X129055715Y-67553250D02*
X128984286Y-67553250D01*
X128984286Y-67553250D02*
X128936667Y-67529440D01*
X129150953Y-67362774D02*
X129103334Y-67386583D01*
X129103334Y-67386583D02*
X129008096Y-67386583D01*
X129008096Y-67386583D02*
X128960477Y-67362774D01*
X128960477Y-67362774D02*
X128936667Y-67338964D01*
X128936667Y-67338964D02*
X128912858Y-67291345D01*
X128912858Y-67291345D02*
X128912858Y-67148488D01*
X128912858Y-67148488D02*
X128936667Y-67100869D01*
X128936667Y-67100869D02*
X128960477Y-67077059D01*
X128960477Y-67077059D02*
X129008096Y-67053250D01*
X129008096Y-67053250D02*
X129103334Y-67053250D01*
X129103334Y-67053250D02*
X129150953Y-67077059D01*
X129389048Y-67053250D02*
X129389048Y-67386583D01*
X129389048Y-67100869D02*
X129412858Y-67077059D01*
X129412858Y-67077059D02*
X129460477Y-67053250D01*
X129460477Y-67053250D02*
X129531905Y-67053250D01*
X129531905Y-67053250D02*
X129579524Y-67077059D01*
X129579524Y-67077059D02*
X129603334Y-67124678D01*
X129603334Y-67124678D02*
X129603334Y-67386583D01*
X130031905Y-67362774D02*
X129984286Y-67386583D01*
X129984286Y-67386583D02*
X129889048Y-67386583D01*
X129889048Y-67386583D02*
X129841429Y-67362774D01*
X129841429Y-67362774D02*
X129817620Y-67315154D01*
X129817620Y-67315154D02*
X129817620Y-67124678D01*
X129817620Y-67124678D02*
X129841429Y-67077059D01*
X129841429Y-67077059D02*
X129889048Y-67053250D01*
X129889048Y-67053250D02*
X129984286Y-67053250D01*
X129984286Y-67053250D02*
X130031905Y-67077059D01*
X130031905Y-67077059D02*
X130055715Y-67124678D01*
X130055715Y-67124678D02*
X130055715Y-67172297D01*
X130055715Y-67172297D02*
X129817620Y-67219916D01*
X130484286Y-67386583D02*
X130484286Y-66886583D01*
X130484286Y-67362774D02*
X130436667Y-67386583D01*
X130436667Y-67386583D02*
X130341429Y-67386583D01*
X130341429Y-67386583D02*
X130293810Y-67362774D01*
X130293810Y-67362774D02*
X130270000Y-67338964D01*
X130270000Y-67338964D02*
X130246191Y-67291345D01*
X130246191Y-67291345D02*
X130246191Y-67148488D01*
X130246191Y-67148488D02*
X130270000Y-67100869D01*
X130270000Y-67100869D02*
X130293810Y-67077059D01*
X130293810Y-67077059D02*
X130341429Y-67053250D01*
X130341429Y-67053250D02*
X130436667Y-67053250D01*
X130436667Y-67053250D02*
X130484286Y-67077059D01*
X131103333Y-67386583D02*
X131103333Y-66886583D01*
X131103333Y-67077059D02*
X131150952Y-67053250D01*
X131150952Y-67053250D02*
X131246190Y-67053250D01*
X131246190Y-67053250D02*
X131293809Y-67077059D01*
X131293809Y-67077059D02*
X131317619Y-67100869D01*
X131317619Y-67100869D02*
X131341428Y-67148488D01*
X131341428Y-67148488D02*
X131341428Y-67291345D01*
X131341428Y-67291345D02*
X131317619Y-67338964D01*
X131317619Y-67338964D02*
X131293809Y-67362774D01*
X131293809Y-67362774D02*
X131246190Y-67386583D01*
X131246190Y-67386583D02*
X131150952Y-67386583D01*
X131150952Y-67386583D02*
X131103333Y-67362774D01*
X131508095Y-67053250D02*
X131627143Y-67386583D01*
X131746190Y-67053250D02*
X131627143Y-67386583D01*
X131627143Y-67386583D02*
X131579524Y-67505631D01*
X131579524Y-67505631D02*
X131555714Y-67529440D01*
X131555714Y-67529440D02*
X131508095Y-67553250D01*
X126234286Y-67929650D02*
X126067619Y-67929650D01*
X126067619Y-68191555D02*
X126067619Y-67691555D01*
X126067619Y-67691555D02*
X126305714Y-67691555D01*
X126496190Y-68191555D02*
X126496190Y-67858222D01*
X126496190Y-67691555D02*
X126472381Y-67715365D01*
X126472381Y-67715365D02*
X126496190Y-67739174D01*
X126496190Y-67739174D02*
X126520000Y-67715365D01*
X126520000Y-67715365D02*
X126496190Y-67691555D01*
X126496190Y-67691555D02*
X126496190Y-67739174D01*
X126805714Y-68191555D02*
X126758095Y-68167746D01*
X126758095Y-68167746D02*
X126734285Y-68120126D01*
X126734285Y-68120126D02*
X126734285Y-67691555D01*
X126996190Y-68191555D02*
X126996190Y-67858222D01*
X126996190Y-67691555D02*
X126972381Y-67715365D01*
X126972381Y-67715365D02*
X126996190Y-67739174D01*
X126996190Y-67739174D02*
X127020000Y-67715365D01*
X127020000Y-67715365D02*
X126996190Y-67691555D01*
X126996190Y-67691555D02*
X126996190Y-67739174D01*
X127234285Y-67858222D02*
X127234285Y-68358222D01*
X127234285Y-67882031D02*
X127281904Y-67858222D01*
X127281904Y-67858222D02*
X127377142Y-67858222D01*
X127377142Y-67858222D02*
X127424761Y-67882031D01*
X127424761Y-67882031D02*
X127448571Y-67905841D01*
X127448571Y-67905841D02*
X127472380Y-67953460D01*
X127472380Y-67953460D02*
X127472380Y-68096317D01*
X127472380Y-68096317D02*
X127448571Y-68143936D01*
X127448571Y-68143936D02*
X127424761Y-68167746D01*
X127424761Y-68167746D02*
X127377142Y-68191555D01*
X127377142Y-68191555D02*
X127281904Y-68191555D01*
X127281904Y-68191555D02*
X127234285Y-68167746D01*
X128067618Y-68191555D02*
X128067618Y-67691555D01*
X128067618Y-67929650D02*
X128353332Y-67929650D01*
X128353332Y-68191555D02*
X128353332Y-67691555D01*
X128805714Y-67858222D02*
X128805714Y-68191555D01*
X128591428Y-67858222D02*
X128591428Y-68120126D01*
X128591428Y-68120126D02*
X128615238Y-68167746D01*
X128615238Y-68167746D02*
X128662857Y-68191555D01*
X128662857Y-68191555D02*
X128734285Y-68191555D01*
X128734285Y-68191555D02*
X128781904Y-68167746D01*
X128781904Y-68167746D02*
X128805714Y-68143936D01*
X129258095Y-68167746D02*
X129210476Y-68191555D01*
X129210476Y-68191555D02*
X129115238Y-68191555D01*
X129115238Y-68191555D02*
X129067619Y-68167746D01*
X129067619Y-68167746D02*
X129043809Y-68143936D01*
X129043809Y-68143936D02*
X129020000Y-68096317D01*
X129020000Y-68096317D02*
X129020000Y-67953460D01*
X129020000Y-67953460D02*
X129043809Y-67905841D01*
X129043809Y-67905841D02*
X129067619Y-67882031D01*
X129067619Y-67882031D02*
X129115238Y-67858222D01*
X129115238Y-67858222D02*
X129210476Y-67858222D01*
X129210476Y-67858222D02*
X129258095Y-67882031D01*
X129424761Y-67858222D02*
X129686666Y-67858222D01*
X129686666Y-67858222D02*
X129424761Y-68191555D01*
X129424761Y-68191555D02*
X129686666Y-68191555D01*
X130067618Y-68167746D02*
X130019999Y-68191555D01*
X130019999Y-68191555D02*
X129924761Y-68191555D01*
X129924761Y-68191555D02*
X129877142Y-68167746D01*
X129877142Y-68167746D02*
X129853333Y-68120126D01*
X129853333Y-68120126D02*
X129853333Y-67929650D01*
X129853333Y-67929650D02*
X129877142Y-67882031D01*
X129877142Y-67882031D02*
X129924761Y-67858222D01*
X129924761Y-67858222D02*
X130019999Y-67858222D01*
X130019999Y-67858222D02*
X130067618Y-67882031D01*
X130067618Y-67882031D02*
X130091428Y-67929650D01*
X130091428Y-67929650D02*
X130091428Y-67977269D01*
X130091428Y-67977269D02*
X129853333Y-68024888D01*
X130305713Y-68191555D02*
X130305713Y-67691555D01*
X130353332Y-68001079D02*
X130496189Y-68191555D01*
X130496189Y-67858222D02*
X130305713Y-68048698D01*
X124627144Y-93286678D02*
X124698572Y-93310488D01*
X124698572Y-93310488D02*
X124722382Y-93334297D01*
X124722382Y-93334297D02*
X124746191Y-93381916D01*
X124746191Y-93381916D02*
X124746191Y-93453345D01*
X124746191Y-93453345D02*
X124722382Y-93500964D01*
X124722382Y-93500964D02*
X124698572Y-93524774D01*
X124698572Y-93524774D02*
X124650953Y-93548583D01*
X124650953Y-93548583D02*
X124460477Y-93548583D01*
X124460477Y-93548583D02*
X124460477Y-93048583D01*
X124460477Y-93048583D02*
X124627144Y-93048583D01*
X124627144Y-93048583D02*
X124674763Y-93072393D01*
X124674763Y-93072393D02*
X124698572Y-93096202D01*
X124698572Y-93096202D02*
X124722382Y-93143821D01*
X124722382Y-93143821D02*
X124722382Y-93191440D01*
X124722382Y-93191440D02*
X124698572Y-93239059D01*
X124698572Y-93239059D02*
X124674763Y-93262869D01*
X124674763Y-93262869D02*
X124627144Y-93286678D01*
X124627144Y-93286678D02*
X124460477Y-93286678D01*
X125031906Y-93548583D02*
X124984287Y-93524774D01*
X124984287Y-93524774D02*
X124960477Y-93500964D01*
X124960477Y-93500964D02*
X124936668Y-93453345D01*
X124936668Y-93453345D02*
X124936668Y-93310488D01*
X124936668Y-93310488D02*
X124960477Y-93262869D01*
X124960477Y-93262869D02*
X124984287Y-93239059D01*
X124984287Y-93239059D02*
X125031906Y-93215250D01*
X125031906Y-93215250D02*
X125103334Y-93215250D01*
X125103334Y-93215250D02*
X125150953Y-93239059D01*
X125150953Y-93239059D02*
X125174763Y-93262869D01*
X125174763Y-93262869D02*
X125198572Y-93310488D01*
X125198572Y-93310488D02*
X125198572Y-93453345D01*
X125198572Y-93453345D02*
X125174763Y-93500964D01*
X125174763Y-93500964D02*
X125150953Y-93524774D01*
X125150953Y-93524774D02*
X125103334Y-93548583D01*
X125103334Y-93548583D02*
X125031906Y-93548583D01*
X125627144Y-93548583D02*
X125627144Y-93286678D01*
X125627144Y-93286678D02*
X125603334Y-93239059D01*
X125603334Y-93239059D02*
X125555715Y-93215250D01*
X125555715Y-93215250D02*
X125460477Y-93215250D01*
X125460477Y-93215250D02*
X125412858Y-93239059D01*
X125627144Y-93524774D02*
X125579525Y-93548583D01*
X125579525Y-93548583D02*
X125460477Y-93548583D01*
X125460477Y-93548583D02*
X125412858Y-93524774D01*
X125412858Y-93524774D02*
X125389049Y-93477154D01*
X125389049Y-93477154D02*
X125389049Y-93429535D01*
X125389049Y-93429535D02*
X125412858Y-93381916D01*
X125412858Y-93381916D02*
X125460477Y-93358107D01*
X125460477Y-93358107D02*
X125579525Y-93358107D01*
X125579525Y-93358107D02*
X125627144Y-93334297D01*
X125865239Y-93548583D02*
X125865239Y-93215250D01*
X125865239Y-93310488D02*
X125889049Y-93262869D01*
X125889049Y-93262869D02*
X125912858Y-93239059D01*
X125912858Y-93239059D02*
X125960477Y-93215250D01*
X125960477Y-93215250D02*
X126008096Y-93215250D01*
X126389049Y-93548583D02*
X126389049Y-93048583D01*
X126389049Y-93524774D02*
X126341430Y-93548583D01*
X126341430Y-93548583D02*
X126246192Y-93548583D01*
X126246192Y-93548583D02*
X126198573Y-93524774D01*
X126198573Y-93524774D02*
X126174763Y-93500964D01*
X126174763Y-93500964D02*
X126150954Y-93453345D01*
X126150954Y-93453345D02*
X126150954Y-93310488D01*
X126150954Y-93310488D02*
X126174763Y-93262869D01*
X126174763Y-93262869D02*
X126198573Y-93239059D01*
X126198573Y-93239059D02*
X126246192Y-93215250D01*
X126246192Y-93215250D02*
X126341430Y-93215250D01*
X126341430Y-93215250D02*
X126389049Y-93239059D01*
X126603335Y-93524774D02*
X126650954Y-93548583D01*
X126650954Y-93548583D02*
X126746192Y-93548583D01*
X126746192Y-93548583D02*
X126793811Y-93524774D01*
X126793811Y-93524774D02*
X126817620Y-93477154D01*
X126817620Y-93477154D02*
X126817620Y-93453345D01*
X126817620Y-93453345D02*
X126793811Y-93405726D01*
X126793811Y-93405726D02*
X126746192Y-93381916D01*
X126746192Y-93381916D02*
X126674763Y-93381916D01*
X126674763Y-93381916D02*
X126627144Y-93358107D01*
X126627144Y-93358107D02*
X126603335Y-93310488D01*
X126603335Y-93310488D02*
X126603335Y-93286678D01*
X126603335Y-93286678D02*
X126627144Y-93239059D01*
X126627144Y-93239059D02*
X126674763Y-93215250D01*
X126674763Y-93215250D02*
X126746192Y-93215250D01*
X126746192Y-93215250D02*
X126793811Y-93239059D01*
X127627144Y-93548583D02*
X127627144Y-93048583D01*
X127627144Y-93524774D02*
X127579525Y-93548583D01*
X127579525Y-93548583D02*
X127484287Y-93548583D01*
X127484287Y-93548583D02*
X127436668Y-93524774D01*
X127436668Y-93524774D02*
X127412858Y-93500964D01*
X127412858Y-93500964D02*
X127389049Y-93453345D01*
X127389049Y-93453345D02*
X127389049Y-93310488D01*
X127389049Y-93310488D02*
X127412858Y-93262869D01*
X127412858Y-93262869D02*
X127436668Y-93239059D01*
X127436668Y-93239059D02*
X127484287Y-93215250D01*
X127484287Y-93215250D02*
X127579525Y-93215250D01*
X127579525Y-93215250D02*
X127627144Y-93239059D01*
X128055715Y-93524774D02*
X128008096Y-93548583D01*
X128008096Y-93548583D02*
X127912858Y-93548583D01*
X127912858Y-93548583D02*
X127865239Y-93524774D01*
X127865239Y-93524774D02*
X127841430Y-93477154D01*
X127841430Y-93477154D02*
X127841430Y-93286678D01*
X127841430Y-93286678D02*
X127865239Y-93239059D01*
X127865239Y-93239059D02*
X127912858Y-93215250D01*
X127912858Y-93215250D02*
X128008096Y-93215250D01*
X128008096Y-93215250D02*
X128055715Y-93239059D01*
X128055715Y-93239059D02*
X128079525Y-93286678D01*
X128079525Y-93286678D02*
X128079525Y-93334297D01*
X128079525Y-93334297D02*
X127841430Y-93381916D01*
X128270001Y-93524774D02*
X128317620Y-93548583D01*
X128317620Y-93548583D02*
X128412858Y-93548583D01*
X128412858Y-93548583D02*
X128460477Y-93524774D01*
X128460477Y-93524774D02*
X128484286Y-93477154D01*
X128484286Y-93477154D02*
X128484286Y-93453345D01*
X128484286Y-93453345D02*
X128460477Y-93405726D01*
X128460477Y-93405726D02*
X128412858Y-93381916D01*
X128412858Y-93381916D02*
X128341429Y-93381916D01*
X128341429Y-93381916D02*
X128293810Y-93358107D01*
X128293810Y-93358107D02*
X128270001Y-93310488D01*
X128270001Y-93310488D02*
X128270001Y-93286678D01*
X128270001Y-93286678D02*
X128293810Y-93239059D01*
X128293810Y-93239059D02*
X128341429Y-93215250D01*
X128341429Y-93215250D02*
X128412858Y-93215250D01*
X128412858Y-93215250D02*
X128460477Y-93239059D01*
X128698572Y-93548583D02*
X128698572Y-93215250D01*
X128698572Y-93048583D02*
X128674763Y-93072393D01*
X128674763Y-93072393D02*
X128698572Y-93096202D01*
X128698572Y-93096202D02*
X128722382Y-93072393D01*
X128722382Y-93072393D02*
X128698572Y-93048583D01*
X128698572Y-93048583D02*
X128698572Y-93096202D01*
X129150953Y-93215250D02*
X129150953Y-93620012D01*
X129150953Y-93620012D02*
X129127143Y-93667631D01*
X129127143Y-93667631D02*
X129103334Y-93691440D01*
X129103334Y-93691440D02*
X129055715Y-93715250D01*
X129055715Y-93715250D02*
X128984286Y-93715250D01*
X128984286Y-93715250D02*
X128936667Y-93691440D01*
X129150953Y-93524774D02*
X129103334Y-93548583D01*
X129103334Y-93548583D02*
X129008096Y-93548583D01*
X129008096Y-93548583D02*
X128960477Y-93524774D01*
X128960477Y-93524774D02*
X128936667Y-93500964D01*
X128936667Y-93500964D02*
X128912858Y-93453345D01*
X128912858Y-93453345D02*
X128912858Y-93310488D01*
X128912858Y-93310488D02*
X128936667Y-93262869D01*
X128936667Y-93262869D02*
X128960477Y-93239059D01*
X128960477Y-93239059D02*
X129008096Y-93215250D01*
X129008096Y-93215250D02*
X129103334Y-93215250D01*
X129103334Y-93215250D02*
X129150953Y-93239059D01*
X129389048Y-93215250D02*
X129389048Y-93548583D01*
X129389048Y-93262869D02*
X129412858Y-93239059D01*
X129412858Y-93239059D02*
X129460477Y-93215250D01*
X129460477Y-93215250D02*
X129531905Y-93215250D01*
X129531905Y-93215250D02*
X129579524Y-93239059D01*
X129579524Y-93239059D02*
X129603334Y-93286678D01*
X129603334Y-93286678D02*
X129603334Y-93548583D01*
X130031905Y-93524774D02*
X129984286Y-93548583D01*
X129984286Y-93548583D02*
X129889048Y-93548583D01*
X129889048Y-93548583D02*
X129841429Y-93524774D01*
X129841429Y-93524774D02*
X129817620Y-93477154D01*
X129817620Y-93477154D02*
X129817620Y-93286678D01*
X129817620Y-93286678D02*
X129841429Y-93239059D01*
X129841429Y-93239059D02*
X129889048Y-93215250D01*
X129889048Y-93215250D02*
X129984286Y-93215250D01*
X129984286Y-93215250D02*
X130031905Y-93239059D01*
X130031905Y-93239059D02*
X130055715Y-93286678D01*
X130055715Y-93286678D02*
X130055715Y-93334297D01*
X130055715Y-93334297D02*
X129817620Y-93381916D01*
X130484286Y-93548583D02*
X130484286Y-93048583D01*
X130484286Y-93524774D02*
X130436667Y-93548583D01*
X130436667Y-93548583D02*
X130341429Y-93548583D01*
X130341429Y-93548583D02*
X130293810Y-93524774D01*
X130293810Y-93524774D02*
X130270000Y-93500964D01*
X130270000Y-93500964D02*
X130246191Y-93453345D01*
X130246191Y-93453345D02*
X130246191Y-93310488D01*
X130246191Y-93310488D02*
X130270000Y-93262869D01*
X130270000Y-93262869D02*
X130293810Y-93239059D01*
X130293810Y-93239059D02*
X130341429Y-93215250D01*
X130341429Y-93215250D02*
X130436667Y-93215250D01*
X130436667Y-93215250D02*
X130484286Y-93239059D01*
X131103333Y-93548583D02*
X131103333Y-93048583D01*
X131103333Y-93239059D02*
X131150952Y-93215250D01*
X131150952Y-93215250D02*
X131246190Y-93215250D01*
X131246190Y-93215250D02*
X131293809Y-93239059D01*
X131293809Y-93239059D02*
X131317619Y-93262869D01*
X131317619Y-93262869D02*
X131341428Y-93310488D01*
X131341428Y-93310488D02*
X131341428Y-93453345D01*
X131341428Y-93453345D02*
X131317619Y-93500964D01*
X131317619Y-93500964D02*
X131293809Y-93524774D01*
X131293809Y-93524774D02*
X131246190Y-93548583D01*
X131246190Y-93548583D02*
X131150952Y-93548583D01*
X131150952Y-93548583D02*
X131103333Y-93524774D01*
X131508095Y-93215250D02*
X131627143Y-93548583D01*
X131746190Y-93215250D02*
X131627143Y-93548583D01*
X131627143Y-93548583D02*
X131579524Y-93667631D01*
X131579524Y-93667631D02*
X131555714Y-93691440D01*
X131555714Y-93691440D02*
X131508095Y-93715250D01*
X126234286Y-94091650D02*
X126067619Y-94091650D01*
X126067619Y-94353555D02*
X126067619Y-93853555D01*
X126067619Y-93853555D02*
X126305714Y-93853555D01*
X126496190Y-94353555D02*
X126496190Y-94020222D01*
X126496190Y-93853555D02*
X126472381Y-93877365D01*
X126472381Y-93877365D02*
X126496190Y-93901174D01*
X126496190Y-93901174D02*
X126520000Y-93877365D01*
X126520000Y-93877365D02*
X126496190Y-93853555D01*
X126496190Y-93853555D02*
X126496190Y-93901174D01*
X126805714Y-94353555D02*
X126758095Y-94329746D01*
X126758095Y-94329746D02*
X126734285Y-94282126D01*
X126734285Y-94282126D02*
X126734285Y-93853555D01*
X126996190Y-94353555D02*
X126996190Y-94020222D01*
X126996190Y-93853555D02*
X126972381Y-93877365D01*
X126972381Y-93877365D02*
X126996190Y-93901174D01*
X126996190Y-93901174D02*
X127020000Y-93877365D01*
X127020000Y-93877365D02*
X126996190Y-93853555D01*
X126996190Y-93853555D02*
X126996190Y-93901174D01*
X127234285Y-94020222D02*
X127234285Y-94520222D01*
X127234285Y-94044031D02*
X127281904Y-94020222D01*
X127281904Y-94020222D02*
X127377142Y-94020222D01*
X127377142Y-94020222D02*
X127424761Y-94044031D01*
X127424761Y-94044031D02*
X127448571Y-94067841D01*
X127448571Y-94067841D02*
X127472380Y-94115460D01*
X127472380Y-94115460D02*
X127472380Y-94258317D01*
X127472380Y-94258317D02*
X127448571Y-94305936D01*
X127448571Y-94305936D02*
X127424761Y-94329746D01*
X127424761Y-94329746D02*
X127377142Y-94353555D01*
X127377142Y-94353555D02*
X127281904Y-94353555D01*
X127281904Y-94353555D02*
X127234285Y-94329746D01*
X128067618Y-94353555D02*
X128067618Y-93853555D01*
X128067618Y-94091650D02*
X128353332Y-94091650D01*
X128353332Y-94353555D02*
X128353332Y-93853555D01*
X128805714Y-94020222D02*
X128805714Y-94353555D01*
X128591428Y-94020222D02*
X128591428Y-94282126D01*
X128591428Y-94282126D02*
X128615238Y-94329746D01*
X128615238Y-94329746D02*
X128662857Y-94353555D01*
X128662857Y-94353555D02*
X128734285Y-94353555D01*
X128734285Y-94353555D02*
X128781904Y-94329746D01*
X128781904Y-94329746D02*
X128805714Y-94305936D01*
X129258095Y-94329746D02*
X129210476Y-94353555D01*
X129210476Y-94353555D02*
X129115238Y-94353555D01*
X129115238Y-94353555D02*
X129067619Y-94329746D01*
X129067619Y-94329746D02*
X129043809Y-94305936D01*
X129043809Y-94305936D02*
X129020000Y-94258317D01*
X129020000Y-94258317D02*
X129020000Y-94115460D01*
X129020000Y-94115460D02*
X129043809Y-94067841D01*
X129043809Y-94067841D02*
X129067619Y-94044031D01*
X129067619Y-94044031D02*
X129115238Y-94020222D01*
X129115238Y-94020222D02*
X129210476Y-94020222D01*
X129210476Y-94020222D02*
X129258095Y-94044031D01*
X129424761Y-94020222D02*
X129686666Y-94020222D01*
X129686666Y-94020222D02*
X129424761Y-94353555D01*
X129424761Y-94353555D02*
X129686666Y-94353555D01*
X130067618Y-94329746D02*
X130019999Y-94353555D01*
X130019999Y-94353555D02*
X129924761Y-94353555D01*
X129924761Y-94353555D02*
X129877142Y-94329746D01*
X129877142Y-94329746D02*
X129853333Y-94282126D01*
X129853333Y-94282126D02*
X129853333Y-94091650D01*
X129853333Y-94091650D02*
X129877142Y-94044031D01*
X129877142Y-94044031D02*
X129924761Y-94020222D01*
X129924761Y-94020222D02*
X130019999Y-94020222D01*
X130019999Y-94020222D02*
X130067618Y-94044031D01*
X130067618Y-94044031D02*
X130091428Y-94091650D01*
X130091428Y-94091650D02*
X130091428Y-94139269D01*
X130091428Y-94139269D02*
X129853333Y-94186888D01*
X130305713Y-94353555D02*
X130305713Y-93853555D01*
X130353332Y-94163079D02*
X130496189Y-94353555D01*
X130496189Y-94020222D02*
X130305713Y-94210698D01*
D11*
X97104000Y-98444000D02*
X101104000Y-98444000D01*
X97104000Y-86444000D02*
X102104000Y-86444000D01*
X97104000Y-103444000D02*
X101104000Y-103444000D01*
X97104000Y-99444000D02*
X101104000Y-99444000D01*
X97104000Y-91444000D02*
X103104000Y-91444000D01*
X97104000Y-92444000D02*
X101104000Y-92444000D01*
X97104000Y-70444000D02*
X101104000Y-70444000D01*
X97104000Y-114444000D02*
X101104000Y-114444000D01*
X97104000Y-82444000D02*
X101104000Y-82444000D01*
X97104000Y-79444000D02*
X101104000Y-79444000D01*
X97104000Y-76444000D02*
X102104000Y-76444000D01*
X97104000Y-80444000D02*
X101104000Y-80444000D01*
X97104000Y-112444000D02*
X101104000Y-112444000D01*
X97104000Y-78444000D02*
X101104000Y-78444000D01*
X97104000Y-81444000D02*
X103104000Y-81444000D01*
X97104000Y-106444000D02*
X102104000Y-106444000D01*
X97104000Y-117444000D02*
X101104000Y-117444000D01*
X97104000Y-109444000D02*
X101104000Y-109444000D01*
X97104000Y-115444000D02*
X101104000Y-115444000D01*
X97104000Y-87444000D02*
X101104000Y-87444000D01*
X97104000Y-95444000D02*
X101104000Y-95444000D01*
X97104000Y-116444000D02*
X102104000Y-116444000D01*
X97104000Y-110444000D02*
X101104000Y-110444000D01*
X97104000Y-118444000D02*
X101104000Y-118444000D01*
X97104000Y-104444000D02*
X101104000Y-104444000D01*
X97104000Y-85444000D02*
X101104000Y-85444000D01*
X97104000Y-62444000D02*
X101104000Y-62444000D01*
X97104000Y-102444000D02*
X101104000Y-102444000D01*
X97104000Y-120444000D02*
X101104000Y-120444000D01*
X97104000Y-90444000D02*
X101104000Y-90444000D01*
X97104000Y-73444000D02*
X101104000Y-73444000D01*
X97104000Y-66444000D02*
X102104000Y-66444000D01*
X97104000Y-71444000D02*
X103104000Y-71444000D01*
X97104000Y-121444000D02*
X103104000Y-121444000D01*
X97104000Y-63444000D02*
X101104000Y-63444000D01*
X97104000Y-77444000D02*
X101104000Y-77444000D01*
X97104000Y-111444000D02*
X103104000Y-111444000D01*
X97104000Y-68444000D02*
X101104000Y-68444000D01*
X97104000Y-69444000D02*
X101104000Y-69444000D01*
X97104000Y-100444000D02*
X101104000Y-100444000D01*
X97104000Y-113444000D02*
X101104000Y-113444000D01*
X97104000Y-83444000D02*
X101104000Y-83444000D01*
X97104000Y-119444000D02*
X101104000Y-119444000D01*
X97104000Y-84444000D02*
X101104000Y-84444000D01*
X97104000Y-61444000D02*
X103104000Y-61444000D01*
X97104000Y-65444000D02*
X101104000Y-65444000D01*
X97104000Y-75444000D02*
X101104000Y-75444000D01*
X97104000Y-93444000D02*
X101104000Y-93444000D01*
X97104000Y-67444000D02*
X101104000Y-67444000D01*
X97104000Y-97444000D02*
X101104000Y-97444000D01*
X97104000Y-64444000D02*
X101104000Y-64444000D01*
X97104000Y-94444000D02*
X101104000Y-94444000D01*
X97104000Y-105444000D02*
X101104000Y-105444000D01*
X97104000Y-88444000D02*
X101104000Y-88444000D01*
X97104000Y-101444000D02*
X103104000Y-101444000D01*
X97104000Y-107444000D02*
X101104000Y-107444000D01*
X97104000Y-108444000D02*
X101104000Y-108444000D01*
X97104000Y-96444000D02*
X102104000Y-96444000D01*
X97104000Y-72444000D02*
X101104000Y-72444000D01*
X97104000Y-89444000D02*
X101104000Y-89444000D01*
X97104000Y-74444000D02*
X101104000Y-74444000D01*
D10*
X103723048Y-81216688D02*
X103746857Y-81192879D01*
X103746857Y-81192879D02*
X103794476Y-81169069D01*
X103794476Y-81169069D02*
X103913524Y-81169069D01*
X103913524Y-81169069D02*
X103961143Y-81192879D01*
X103961143Y-81192879D02*
X103984952Y-81216688D01*
X103984952Y-81216688D02*
X104008762Y-81264307D01*
X104008762Y-81264307D02*
X104008762Y-81311926D01*
X104008762Y-81311926D02*
X103984952Y-81383355D01*
X103984952Y-81383355D02*
X103699238Y-81669069D01*
X103699238Y-81669069D02*
X104008762Y-81669069D01*
X104318285Y-81169069D02*
X104365904Y-81169069D01*
X104365904Y-81169069D02*
X104413523Y-81192879D01*
X104413523Y-81192879D02*
X104437333Y-81216688D01*
X104437333Y-81216688D02*
X104461142Y-81264307D01*
X104461142Y-81264307D02*
X104484952Y-81359545D01*
X104484952Y-81359545D02*
X104484952Y-81478593D01*
X104484952Y-81478593D02*
X104461142Y-81573831D01*
X104461142Y-81573831D02*
X104437333Y-81621450D01*
X104437333Y-81621450D02*
X104413523Y-81645260D01*
X104413523Y-81645260D02*
X104365904Y-81669069D01*
X104365904Y-81669069D02*
X104318285Y-81669069D01*
X104318285Y-81669069D02*
X104270666Y-81645260D01*
X104270666Y-81645260D02*
X104246857Y-81621450D01*
X104246857Y-81621450D02*
X104223047Y-81573831D01*
X104223047Y-81573831D02*
X104199238Y-81478593D01*
X104199238Y-81478593D02*
X104199238Y-81359545D01*
X104199238Y-81359545D02*
X104223047Y-81264307D01*
X104223047Y-81264307D02*
X104246857Y-81216688D01*
X104246857Y-81216688D02*
X104270666Y-81192879D01*
X104270666Y-81192879D02*
X104318285Y-81169069D01*
X103984952Y-116169069D02*
X103746857Y-116169069D01*
X103746857Y-116169069D02*
X103723048Y-116407164D01*
X103723048Y-116407164D02*
X103746857Y-116383355D01*
X103746857Y-116383355D02*
X103794476Y-116359545D01*
X103794476Y-116359545D02*
X103913524Y-116359545D01*
X103913524Y-116359545D02*
X103961143Y-116383355D01*
X103961143Y-116383355D02*
X103984952Y-116407164D01*
X103984952Y-116407164D02*
X104008762Y-116454783D01*
X104008762Y-116454783D02*
X104008762Y-116573831D01*
X104008762Y-116573831D02*
X103984952Y-116621450D01*
X103984952Y-116621450D02*
X103961143Y-116645260D01*
X103961143Y-116645260D02*
X103913524Y-116669069D01*
X103913524Y-116669069D02*
X103794476Y-116669069D01*
X103794476Y-116669069D02*
X103746857Y-116645260D01*
X103746857Y-116645260D02*
X103723048Y-116621450D01*
X104461142Y-116169069D02*
X104223047Y-116169069D01*
X104223047Y-116169069D02*
X104199238Y-116407164D01*
X104199238Y-116407164D02*
X104223047Y-116383355D01*
X104223047Y-116383355D02*
X104270666Y-116359545D01*
X104270666Y-116359545D02*
X104389714Y-116359545D01*
X104389714Y-116359545D02*
X104437333Y-116383355D01*
X104437333Y-116383355D02*
X104461142Y-116407164D01*
X104461142Y-116407164D02*
X104484952Y-116454783D01*
X104484952Y-116454783D02*
X104484952Y-116573831D01*
X104484952Y-116573831D02*
X104461142Y-116621450D01*
X104461142Y-116621450D02*
X104437333Y-116645260D01*
X104437333Y-116645260D02*
X104389714Y-116669069D01*
X104389714Y-116669069D02*
X104270666Y-116669069D01*
X104270666Y-116669069D02*
X104223047Y-116645260D01*
X104223047Y-116645260D02*
X104199238Y-116621450D01*
X103723048Y-86216688D02*
X103746857Y-86192879D01*
X103746857Y-86192879D02*
X103794476Y-86169069D01*
X103794476Y-86169069D02*
X103913524Y-86169069D01*
X103913524Y-86169069D02*
X103961143Y-86192879D01*
X103961143Y-86192879D02*
X103984952Y-86216688D01*
X103984952Y-86216688D02*
X104008762Y-86264307D01*
X104008762Y-86264307D02*
X104008762Y-86311926D01*
X104008762Y-86311926D02*
X103984952Y-86383355D01*
X103984952Y-86383355D02*
X103699238Y-86669069D01*
X103699238Y-86669069D02*
X104008762Y-86669069D01*
X104461142Y-86169069D02*
X104223047Y-86169069D01*
X104223047Y-86169069D02*
X104199238Y-86407164D01*
X104199238Y-86407164D02*
X104223047Y-86383355D01*
X104223047Y-86383355D02*
X104270666Y-86359545D01*
X104270666Y-86359545D02*
X104389714Y-86359545D01*
X104389714Y-86359545D02*
X104437333Y-86383355D01*
X104437333Y-86383355D02*
X104461142Y-86407164D01*
X104461142Y-86407164D02*
X104484952Y-86454783D01*
X104484952Y-86454783D02*
X104484952Y-86573831D01*
X104484952Y-86573831D02*
X104461142Y-86621450D01*
X104461142Y-86621450D02*
X104437333Y-86645260D01*
X104437333Y-86645260D02*
X104389714Y-86669069D01*
X104389714Y-86669069D02*
X104270666Y-86669069D01*
X104270666Y-86669069D02*
X104223047Y-86645260D01*
X104223047Y-86645260D02*
X104199238Y-86621450D01*
X104223047Y-66169069D02*
X103984952Y-66169069D01*
X103984952Y-66169069D02*
X103961143Y-66407164D01*
X103961143Y-66407164D02*
X103984952Y-66383355D01*
X103984952Y-66383355D02*
X104032571Y-66359545D01*
X104032571Y-66359545D02*
X104151619Y-66359545D01*
X104151619Y-66359545D02*
X104199238Y-66383355D01*
X104199238Y-66383355D02*
X104223047Y-66407164D01*
X104223047Y-66407164D02*
X104246857Y-66454783D01*
X104246857Y-66454783D02*
X104246857Y-66573831D01*
X104246857Y-66573831D02*
X104223047Y-66621450D01*
X104223047Y-66621450D02*
X104199238Y-66645260D01*
X104199238Y-66645260D02*
X104151619Y-66669069D01*
X104151619Y-66669069D02*
X104032571Y-66669069D01*
X104032571Y-66669069D02*
X103984952Y-66645260D01*
X103984952Y-66645260D02*
X103961143Y-66621450D01*
X103961143Y-121169069D02*
X103865905Y-121169069D01*
X103865905Y-121169069D02*
X103818286Y-121192879D01*
X103818286Y-121192879D02*
X103794476Y-121216688D01*
X103794476Y-121216688D02*
X103746857Y-121288117D01*
X103746857Y-121288117D02*
X103723048Y-121383355D01*
X103723048Y-121383355D02*
X103723048Y-121573831D01*
X103723048Y-121573831D02*
X103746857Y-121621450D01*
X103746857Y-121621450D02*
X103770667Y-121645260D01*
X103770667Y-121645260D02*
X103818286Y-121669069D01*
X103818286Y-121669069D02*
X103913524Y-121669069D01*
X103913524Y-121669069D02*
X103961143Y-121645260D01*
X103961143Y-121645260D02*
X103984952Y-121621450D01*
X103984952Y-121621450D02*
X104008762Y-121573831D01*
X104008762Y-121573831D02*
X104008762Y-121454783D01*
X104008762Y-121454783D02*
X103984952Y-121407164D01*
X103984952Y-121407164D02*
X103961143Y-121383355D01*
X103961143Y-121383355D02*
X103913524Y-121359545D01*
X103913524Y-121359545D02*
X103818286Y-121359545D01*
X103818286Y-121359545D02*
X103770667Y-121383355D01*
X103770667Y-121383355D02*
X103746857Y-121407164D01*
X103746857Y-121407164D02*
X103723048Y-121454783D01*
X104318285Y-121169069D02*
X104365904Y-121169069D01*
X104365904Y-121169069D02*
X104413523Y-121192879D01*
X104413523Y-121192879D02*
X104437333Y-121216688D01*
X104437333Y-121216688D02*
X104461142Y-121264307D01*
X104461142Y-121264307D02*
X104484952Y-121359545D01*
X104484952Y-121359545D02*
X104484952Y-121478593D01*
X104484952Y-121478593D02*
X104461142Y-121573831D01*
X104461142Y-121573831D02*
X104437333Y-121621450D01*
X104437333Y-121621450D02*
X104413523Y-121645260D01*
X104413523Y-121645260D02*
X104365904Y-121669069D01*
X104365904Y-121669069D02*
X104318285Y-121669069D01*
X104318285Y-121669069D02*
X104270666Y-121645260D01*
X104270666Y-121645260D02*
X104246857Y-121621450D01*
X104246857Y-121621450D02*
X104223047Y-121573831D01*
X104223047Y-121573831D02*
X104199238Y-121478593D01*
X104199238Y-121478593D02*
X104199238Y-121359545D01*
X104199238Y-121359545D02*
X104223047Y-121264307D01*
X104223047Y-121264307D02*
X104246857Y-121216688D01*
X104246857Y-121216688D02*
X104270666Y-121192879D01*
X104270666Y-121192879D02*
X104318285Y-121169069D01*
X103699238Y-96169069D02*
X104008762Y-96169069D01*
X104008762Y-96169069D02*
X103842095Y-96359545D01*
X103842095Y-96359545D02*
X103913524Y-96359545D01*
X103913524Y-96359545D02*
X103961143Y-96383355D01*
X103961143Y-96383355D02*
X103984952Y-96407164D01*
X103984952Y-96407164D02*
X104008762Y-96454783D01*
X104008762Y-96454783D02*
X104008762Y-96573831D01*
X104008762Y-96573831D02*
X103984952Y-96621450D01*
X103984952Y-96621450D02*
X103961143Y-96645260D01*
X103961143Y-96645260D02*
X103913524Y-96669069D01*
X103913524Y-96669069D02*
X103770667Y-96669069D01*
X103770667Y-96669069D02*
X103723048Y-96645260D01*
X103723048Y-96645260D02*
X103699238Y-96621450D01*
X104461142Y-96169069D02*
X104223047Y-96169069D01*
X104223047Y-96169069D02*
X104199238Y-96407164D01*
X104199238Y-96407164D02*
X104223047Y-96383355D01*
X104223047Y-96383355D02*
X104270666Y-96359545D01*
X104270666Y-96359545D02*
X104389714Y-96359545D01*
X104389714Y-96359545D02*
X104437333Y-96383355D01*
X104437333Y-96383355D02*
X104461142Y-96407164D01*
X104461142Y-96407164D02*
X104484952Y-96454783D01*
X104484952Y-96454783D02*
X104484952Y-96573831D01*
X104484952Y-96573831D02*
X104461142Y-96621450D01*
X104461142Y-96621450D02*
X104437333Y-96645260D01*
X104437333Y-96645260D02*
X104389714Y-96669069D01*
X104389714Y-96669069D02*
X104270666Y-96669069D01*
X104270666Y-96669069D02*
X104223047Y-96645260D01*
X104223047Y-96645260D02*
X104199238Y-96621450D01*
X103961143Y-106335736D02*
X103961143Y-106669069D01*
X103842095Y-106145260D02*
X103723048Y-106502402D01*
X103723048Y-106502402D02*
X104032571Y-106502402D01*
X104461142Y-106169069D02*
X104223047Y-106169069D01*
X104223047Y-106169069D02*
X104199238Y-106407164D01*
X104199238Y-106407164D02*
X104223047Y-106383355D01*
X104223047Y-106383355D02*
X104270666Y-106359545D01*
X104270666Y-106359545D02*
X104389714Y-106359545D01*
X104389714Y-106359545D02*
X104437333Y-106383355D01*
X104437333Y-106383355D02*
X104461142Y-106407164D01*
X104461142Y-106407164D02*
X104484952Y-106454783D01*
X104484952Y-106454783D02*
X104484952Y-106573831D01*
X104484952Y-106573831D02*
X104461142Y-106621450D01*
X104461142Y-106621450D02*
X104437333Y-106645260D01*
X104437333Y-106645260D02*
X104389714Y-106669069D01*
X104389714Y-106669069D02*
X104270666Y-106669069D01*
X104270666Y-106669069D02*
X104223047Y-106645260D01*
X104223047Y-106645260D02*
X104199238Y-106621450D01*
X183911142Y-120161213D02*
X184039714Y-120204070D01*
X184039714Y-120204070D02*
X184082571Y-120246927D01*
X184082571Y-120246927D02*
X184125428Y-120332642D01*
X184125428Y-120332642D02*
X184125428Y-120461213D01*
X184125428Y-120461213D02*
X184082571Y-120546927D01*
X184082571Y-120546927D02*
X184039714Y-120589785D01*
X184039714Y-120589785D02*
X183953999Y-120632642D01*
X183953999Y-120632642D02*
X183611142Y-120632642D01*
X183611142Y-120632642D02*
X183611142Y-119732642D01*
X183611142Y-119732642D02*
X183911142Y-119732642D01*
X183911142Y-119732642D02*
X183996857Y-119775499D01*
X183996857Y-119775499D02*
X184039714Y-119818356D01*
X184039714Y-119818356D02*
X184082571Y-119904070D01*
X184082571Y-119904070D02*
X184082571Y-119989785D01*
X184082571Y-119989785D02*
X184039714Y-120075499D01*
X184039714Y-120075499D02*
X183996857Y-120118356D01*
X183996857Y-120118356D02*
X183911142Y-120161213D01*
X183911142Y-120161213D02*
X183611142Y-120161213D01*
X184639714Y-120632642D02*
X184553999Y-120589785D01*
X184553999Y-120589785D02*
X184511142Y-120546927D01*
X184511142Y-120546927D02*
X184468285Y-120461213D01*
X184468285Y-120461213D02*
X184468285Y-120204070D01*
X184468285Y-120204070D02*
X184511142Y-120118356D01*
X184511142Y-120118356D02*
X184553999Y-120075499D01*
X184553999Y-120075499D02*
X184639714Y-120032642D01*
X184639714Y-120032642D02*
X184768285Y-120032642D01*
X184768285Y-120032642D02*
X184853999Y-120075499D01*
X184853999Y-120075499D02*
X184896857Y-120118356D01*
X184896857Y-120118356D02*
X184939714Y-120204070D01*
X184939714Y-120204070D02*
X184939714Y-120461213D01*
X184939714Y-120461213D02*
X184896857Y-120546927D01*
X184896857Y-120546927D02*
X184853999Y-120589785D01*
X184853999Y-120589785D02*
X184768285Y-120632642D01*
X184768285Y-120632642D02*
X184639714Y-120632642D01*
X185711143Y-120632642D02*
X185711143Y-120161213D01*
X185711143Y-120161213D02*
X185668285Y-120075499D01*
X185668285Y-120075499D02*
X185582571Y-120032642D01*
X185582571Y-120032642D02*
X185411143Y-120032642D01*
X185411143Y-120032642D02*
X185325428Y-120075499D01*
X185711143Y-120589785D02*
X185625428Y-120632642D01*
X185625428Y-120632642D02*
X185411143Y-120632642D01*
X185411143Y-120632642D02*
X185325428Y-120589785D01*
X185325428Y-120589785D02*
X185282571Y-120504070D01*
X185282571Y-120504070D02*
X185282571Y-120418356D01*
X185282571Y-120418356D02*
X185325428Y-120332642D01*
X185325428Y-120332642D02*
X185411143Y-120289785D01*
X185411143Y-120289785D02*
X185625428Y-120289785D01*
X185625428Y-120289785D02*
X185711143Y-120246927D01*
X186139714Y-120632642D02*
X186139714Y-120032642D01*
X186139714Y-120204070D02*
X186182571Y-120118356D01*
X186182571Y-120118356D02*
X186225429Y-120075499D01*
X186225429Y-120075499D02*
X186311143Y-120032642D01*
X186311143Y-120032642D02*
X186396857Y-120032642D01*
X187082572Y-120632642D02*
X187082572Y-119732642D01*
X187082572Y-120589785D02*
X186996857Y-120632642D01*
X186996857Y-120632642D02*
X186825429Y-120632642D01*
X186825429Y-120632642D02*
X186739714Y-120589785D01*
X186739714Y-120589785D02*
X186696857Y-120546927D01*
X186696857Y-120546927D02*
X186654000Y-120461213D01*
X186654000Y-120461213D02*
X186654000Y-120204070D01*
X186654000Y-120204070D02*
X186696857Y-120118356D01*
X186696857Y-120118356D02*
X186739714Y-120075499D01*
X186739714Y-120075499D02*
X186825429Y-120032642D01*
X186825429Y-120032642D02*
X186996857Y-120032642D01*
X186996857Y-120032642D02*
X187082572Y-120075499D01*
X188582572Y-120632642D02*
X188582572Y-119732642D01*
X188582572Y-120589785D02*
X188496857Y-120632642D01*
X188496857Y-120632642D02*
X188325429Y-120632642D01*
X188325429Y-120632642D02*
X188239714Y-120589785D01*
X188239714Y-120589785D02*
X188196857Y-120546927D01*
X188196857Y-120546927D02*
X188154000Y-120461213D01*
X188154000Y-120461213D02*
X188154000Y-120204070D01*
X188154000Y-120204070D02*
X188196857Y-120118356D01*
X188196857Y-120118356D02*
X188239714Y-120075499D01*
X188239714Y-120075499D02*
X188325429Y-120032642D01*
X188325429Y-120032642D02*
X188496857Y-120032642D01*
X188496857Y-120032642D02*
X188582572Y-120075499D01*
X189354000Y-120589785D02*
X189268286Y-120632642D01*
X189268286Y-120632642D02*
X189096858Y-120632642D01*
X189096858Y-120632642D02*
X189011143Y-120589785D01*
X189011143Y-120589785D02*
X188968286Y-120504070D01*
X188968286Y-120504070D02*
X188968286Y-120161213D01*
X188968286Y-120161213D02*
X189011143Y-120075499D01*
X189011143Y-120075499D02*
X189096858Y-120032642D01*
X189096858Y-120032642D02*
X189268286Y-120032642D01*
X189268286Y-120032642D02*
X189354000Y-120075499D01*
X189354000Y-120075499D02*
X189396858Y-120161213D01*
X189396858Y-120161213D02*
X189396858Y-120246927D01*
X189396858Y-120246927D02*
X188968286Y-120332642D01*
X189739715Y-120589785D02*
X189825429Y-120632642D01*
X189825429Y-120632642D02*
X189996858Y-120632642D01*
X189996858Y-120632642D02*
X190082572Y-120589785D01*
X190082572Y-120589785D02*
X190125429Y-120504070D01*
X190125429Y-120504070D02*
X190125429Y-120461213D01*
X190125429Y-120461213D02*
X190082572Y-120375499D01*
X190082572Y-120375499D02*
X189996858Y-120332642D01*
X189996858Y-120332642D02*
X189868287Y-120332642D01*
X189868287Y-120332642D02*
X189782572Y-120289785D01*
X189782572Y-120289785D02*
X189739715Y-120204070D01*
X189739715Y-120204070D02*
X189739715Y-120161213D01*
X189739715Y-120161213D02*
X189782572Y-120075499D01*
X189782572Y-120075499D02*
X189868287Y-120032642D01*
X189868287Y-120032642D02*
X189996858Y-120032642D01*
X189996858Y-120032642D02*
X190082572Y-120075499D01*
X190511143Y-120632642D02*
X190511143Y-120032642D01*
X190511143Y-119732642D02*
X190468286Y-119775499D01*
X190468286Y-119775499D02*
X190511143Y-119818356D01*
X190511143Y-119818356D02*
X190554000Y-119775499D01*
X190554000Y-119775499D02*
X190511143Y-119732642D01*
X190511143Y-119732642D02*
X190511143Y-119818356D01*
X191325429Y-120032642D02*
X191325429Y-120761213D01*
X191325429Y-120761213D02*
X191282571Y-120846927D01*
X191282571Y-120846927D02*
X191239714Y-120889785D01*
X191239714Y-120889785D02*
X191154000Y-120932642D01*
X191154000Y-120932642D02*
X191025429Y-120932642D01*
X191025429Y-120932642D02*
X190939714Y-120889785D01*
X191325429Y-120589785D02*
X191239714Y-120632642D01*
X191239714Y-120632642D02*
X191068286Y-120632642D01*
X191068286Y-120632642D02*
X190982571Y-120589785D01*
X190982571Y-120589785D02*
X190939714Y-120546927D01*
X190939714Y-120546927D02*
X190896857Y-120461213D01*
X190896857Y-120461213D02*
X190896857Y-120204070D01*
X190896857Y-120204070D02*
X190939714Y-120118356D01*
X190939714Y-120118356D02*
X190982571Y-120075499D01*
X190982571Y-120075499D02*
X191068286Y-120032642D01*
X191068286Y-120032642D02*
X191239714Y-120032642D01*
X191239714Y-120032642D02*
X191325429Y-120075499D01*
X191754000Y-120032642D02*
X191754000Y-120632642D01*
X191754000Y-120118356D02*
X191796857Y-120075499D01*
X191796857Y-120075499D02*
X191882572Y-120032642D01*
X191882572Y-120032642D02*
X192011143Y-120032642D01*
X192011143Y-120032642D02*
X192096857Y-120075499D01*
X192096857Y-120075499D02*
X192139715Y-120161213D01*
X192139715Y-120161213D02*
X192139715Y-120632642D01*
X192911143Y-120589785D02*
X192825429Y-120632642D01*
X192825429Y-120632642D02*
X192654001Y-120632642D01*
X192654001Y-120632642D02*
X192568286Y-120589785D01*
X192568286Y-120589785D02*
X192525429Y-120504070D01*
X192525429Y-120504070D02*
X192525429Y-120161213D01*
X192525429Y-120161213D02*
X192568286Y-120075499D01*
X192568286Y-120075499D02*
X192654001Y-120032642D01*
X192654001Y-120032642D02*
X192825429Y-120032642D01*
X192825429Y-120032642D02*
X192911143Y-120075499D01*
X192911143Y-120075499D02*
X192954001Y-120161213D01*
X192954001Y-120161213D02*
X192954001Y-120246927D01*
X192954001Y-120246927D02*
X192525429Y-120332642D01*
X193725430Y-120632642D02*
X193725430Y-119732642D01*
X193725430Y-120589785D02*
X193639715Y-120632642D01*
X193639715Y-120632642D02*
X193468287Y-120632642D01*
X193468287Y-120632642D02*
X193382572Y-120589785D01*
X193382572Y-120589785D02*
X193339715Y-120546927D01*
X193339715Y-120546927D02*
X193296858Y-120461213D01*
X193296858Y-120461213D02*
X193296858Y-120204070D01*
X193296858Y-120204070D02*
X193339715Y-120118356D01*
X193339715Y-120118356D02*
X193382572Y-120075499D01*
X193382572Y-120075499D02*
X193468287Y-120032642D01*
X193468287Y-120032642D02*
X193639715Y-120032642D01*
X193639715Y-120032642D02*
X193725430Y-120075499D01*
X194839715Y-120632642D02*
X194839715Y-119732642D01*
X194839715Y-120075499D02*
X194925430Y-120032642D01*
X194925430Y-120032642D02*
X195096858Y-120032642D01*
X195096858Y-120032642D02*
X195182572Y-120075499D01*
X195182572Y-120075499D02*
X195225430Y-120118356D01*
X195225430Y-120118356D02*
X195268287Y-120204070D01*
X195268287Y-120204070D02*
X195268287Y-120461213D01*
X195268287Y-120461213D02*
X195225430Y-120546927D01*
X195225430Y-120546927D02*
X195182572Y-120589785D01*
X195182572Y-120589785D02*
X195096858Y-120632642D01*
X195096858Y-120632642D02*
X194925430Y-120632642D01*
X194925430Y-120632642D02*
X194839715Y-120589785D01*
X195568287Y-120032642D02*
X195782573Y-120632642D01*
X195996858Y-120032642D02*
X195782573Y-120632642D01*
X195782573Y-120632642D02*
X195696858Y-120846927D01*
X195696858Y-120846927D02*
X195654001Y-120889785D01*
X195654001Y-120889785D02*
X195568287Y-120932642D01*
X186439714Y-121610163D02*
X186139714Y-121610163D01*
X186139714Y-122081592D02*
X186139714Y-121181592D01*
X186139714Y-121181592D02*
X186568286Y-121181592D01*
X186911143Y-122081592D02*
X186911143Y-121481592D01*
X186911143Y-121181592D02*
X186868286Y-121224449D01*
X186868286Y-121224449D02*
X186911143Y-121267306D01*
X186911143Y-121267306D02*
X186954000Y-121224449D01*
X186954000Y-121224449D02*
X186911143Y-121181592D01*
X186911143Y-121181592D02*
X186911143Y-121267306D01*
X187468286Y-122081592D02*
X187382571Y-122038735D01*
X187382571Y-122038735D02*
X187339714Y-121953020D01*
X187339714Y-121953020D02*
X187339714Y-121181592D01*
X187811143Y-122081592D02*
X187811143Y-121481592D01*
X187811143Y-121181592D02*
X187768286Y-121224449D01*
X187768286Y-121224449D02*
X187811143Y-121267306D01*
X187811143Y-121267306D02*
X187854000Y-121224449D01*
X187854000Y-121224449D02*
X187811143Y-121181592D01*
X187811143Y-121181592D02*
X187811143Y-121267306D01*
X188239714Y-121481592D02*
X188239714Y-122381592D01*
X188239714Y-121524449D02*
X188325429Y-121481592D01*
X188325429Y-121481592D02*
X188496857Y-121481592D01*
X188496857Y-121481592D02*
X188582571Y-121524449D01*
X188582571Y-121524449D02*
X188625429Y-121567306D01*
X188625429Y-121567306D02*
X188668286Y-121653020D01*
X188668286Y-121653020D02*
X188668286Y-121910163D01*
X188668286Y-121910163D02*
X188625429Y-121995877D01*
X188625429Y-121995877D02*
X188582571Y-122038735D01*
X188582571Y-122038735D02*
X188496857Y-122081592D01*
X188496857Y-122081592D02*
X188325429Y-122081592D01*
X188325429Y-122081592D02*
X188239714Y-122038735D01*
X189739714Y-122081592D02*
X189739714Y-121181592D01*
X189739714Y-121610163D02*
X190254000Y-121610163D01*
X190254000Y-122081592D02*
X190254000Y-121181592D01*
X191068286Y-121481592D02*
X191068286Y-122081592D01*
X190682571Y-121481592D02*
X190682571Y-121953020D01*
X190682571Y-121953020D02*
X190725428Y-122038735D01*
X190725428Y-122038735D02*
X190811143Y-122081592D01*
X190811143Y-122081592D02*
X190939714Y-122081592D01*
X190939714Y-122081592D02*
X191025428Y-122038735D01*
X191025428Y-122038735D02*
X191068286Y-121995877D01*
X191882572Y-122038735D02*
X191796857Y-122081592D01*
X191796857Y-122081592D02*
X191625429Y-122081592D01*
X191625429Y-122081592D02*
X191539714Y-122038735D01*
X191539714Y-122038735D02*
X191496857Y-121995877D01*
X191496857Y-121995877D02*
X191454000Y-121910163D01*
X191454000Y-121910163D02*
X191454000Y-121653020D01*
X191454000Y-121653020D02*
X191496857Y-121567306D01*
X191496857Y-121567306D02*
X191539714Y-121524449D01*
X191539714Y-121524449D02*
X191625429Y-121481592D01*
X191625429Y-121481592D02*
X191796857Y-121481592D01*
X191796857Y-121481592D02*
X191882572Y-121524449D01*
X192182572Y-121481592D02*
X192654001Y-121481592D01*
X192654001Y-121481592D02*
X192182572Y-122081592D01*
X192182572Y-122081592D02*
X192654001Y-122081592D01*
X193339714Y-122038735D02*
X193254000Y-122081592D01*
X193254000Y-122081592D02*
X193082572Y-122081592D01*
X193082572Y-122081592D02*
X192996857Y-122038735D01*
X192996857Y-122038735D02*
X192954000Y-121953020D01*
X192954000Y-121953020D02*
X192954000Y-121610163D01*
X192954000Y-121610163D02*
X192996857Y-121524449D01*
X192996857Y-121524449D02*
X193082572Y-121481592D01*
X193082572Y-121481592D02*
X193254000Y-121481592D01*
X193254000Y-121481592D02*
X193339714Y-121524449D01*
X193339714Y-121524449D02*
X193382572Y-121610163D01*
X193382572Y-121610163D02*
X193382572Y-121695877D01*
X193382572Y-121695877D02*
X192954000Y-121781592D01*
X193768286Y-122081592D02*
X193768286Y-121181592D01*
X193854001Y-121738735D02*
X194111143Y-122081592D01*
X194111143Y-121481592D02*
X193768286Y-121824449D01*
X103699238Y-91169069D02*
X104008762Y-91169069D01*
X104008762Y-91169069D02*
X103842095Y-91359545D01*
X103842095Y-91359545D02*
X103913524Y-91359545D01*
X103913524Y-91359545D02*
X103961143Y-91383355D01*
X103961143Y-91383355D02*
X103984952Y-91407164D01*
X103984952Y-91407164D02*
X104008762Y-91454783D01*
X104008762Y-91454783D02*
X104008762Y-91573831D01*
X104008762Y-91573831D02*
X103984952Y-91621450D01*
X103984952Y-91621450D02*
X103961143Y-91645260D01*
X103961143Y-91645260D02*
X103913524Y-91669069D01*
X103913524Y-91669069D02*
X103770667Y-91669069D01*
X103770667Y-91669069D02*
X103723048Y-91645260D01*
X103723048Y-91645260D02*
X103699238Y-91621450D01*
X104318285Y-91169069D02*
X104365904Y-91169069D01*
X104365904Y-91169069D02*
X104413523Y-91192879D01*
X104413523Y-91192879D02*
X104437333Y-91216688D01*
X104437333Y-91216688D02*
X104461142Y-91264307D01*
X104461142Y-91264307D02*
X104484952Y-91359545D01*
X104484952Y-91359545D02*
X104484952Y-91478593D01*
X104484952Y-91478593D02*
X104461142Y-91573831D01*
X104461142Y-91573831D02*
X104437333Y-91621450D01*
X104437333Y-91621450D02*
X104413523Y-91645260D01*
X104413523Y-91645260D02*
X104365904Y-91669069D01*
X104365904Y-91669069D02*
X104318285Y-91669069D01*
X104318285Y-91669069D02*
X104270666Y-91645260D01*
X104270666Y-91645260D02*
X104246857Y-91621450D01*
X104246857Y-91621450D02*
X104223047Y-91573831D01*
X104223047Y-91573831D02*
X104199238Y-91478593D01*
X104199238Y-91478593D02*
X104199238Y-91359545D01*
X104199238Y-91359545D02*
X104223047Y-91264307D01*
X104223047Y-91264307D02*
X104246857Y-91216688D01*
X104246857Y-91216688D02*
X104270666Y-91192879D01*
X104270666Y-91192879D02*
X104318285Y-91169069D01*
X104008762Y-76669069D02*
X103723048Y-76669069D01*
X103865905Y-76669069D02*
X103865905Y-76169069D01*
X103865905Y-76169069D02*
X103818286Y-76240498D01*
X103818286Y-76240498D02*
X103770667Y-76288117D01*
X103770667Y-76288117D02*
X103723048Y-76311926D01*
X104461142Y-76169069D02*
X104223047Y-76169069D01*
X104223047Y-76169069D02*
X104199238Y-76407164D01*
X104199238Y-76407164D02*
X104223047Y-76383355D01*
X104223047Y-76383355D02*
X104270666Y-76359545D01*
X104270666Y-76359545D02*
X104389714Y-76359545D01*
X104389714Y-76359545D02*
X104437333Y-76383355D01*
X104437333Y-76383355D02*
X104461142Y-76407164D01*
X104461142Y-76407164D02*
X104484952Y-76454783D01*
X104484952Y-76454783D02*
X104484952Y-76573831D01*
X104484952Y-76573831D02*
X104461142Y-76621450D01*
X104461142Y-76621450D02*
X104437333Y-76645260D01*
X104437333Y-76645260D02*
X104389714Y-76669069D01*
X104389714Y-76669069D02*
X104270666Y-76669069D01*
X104270666Y-76669069D02*
X104223047Y-76645260D01*
X104223047Y-76645260D02*
X104199238Y-76621450D01*
D12*
X179268336Y-61631723D02*
X180339764Y-61631723D01*
X179696907Y-60988866D02*
X179268336Y-62917437D01*
X180196907Y-62274580D02*
X179125479Y-62274580D01*
X179768336Y-62917437D02*
X180196907Y-60988866D01*
X181768336Y-61131723D02*
X182268336Y-62631723D01*
X182268336Y-62631723D02*
X182768336Y-61131723D01*
X183839764Y-62560295D02*
X183696907Y-62631723D01*
X183696907Y-62631723D02*
X183411193Y-62631723D01*
X183411193Y-62631723D02*
X183268335Y-62560295D01*
X183268335Y-62560295D02*
X183196907Y-62417437D01*
X183196907Y-62417437D02*
X183196907Y-61846009D01*
X183196907Y-61846009D02*
X183268335Y-61703152D01*
X183268335Y-61703152D02*
X183411193Y-61631723D01*
X183411193Y-61631723D02*
X183696907Y-61631723D01*
X183696907Y-61631723D02*
X183839764Y-61703152D01*
X183839764Y-61703152D02*
X183911193Y-61846009D01*
X183911193Y-61846009D02*
X183911193Y-61988866D01*
X183911193Y-61988866D02*
X183196907Y-62131723D01*
X184554049Y-62631723D02*
X184554049Y-61631723D01*
X184554049Y-61917437D02*
X184625478Y-61774580D01*
X184625478Y-61774580D02*
X184696907Y-61703152D01*
X184696907Y-61703152D02*
X184839764Y-61631723D01*
X184839764Y-61631723D02*
X184982621Y-61631723D01*
X185411192Y-62560295D02*
X185554049Y-62631723D01*
X185554049Y-62631723D02*
X185839763Y-62631723D01*
X185839763Y-62631723D02*
X185982620Y-62560295D01*
X185982620Y-62560295D02*
X186054049Y-62417437D01*
X186054049Y-62417437D02*
X186054049Y-62346009D01*
X186054049Y-62346009D02*
X185982620Y-62203152D01*
X185982620Y-62203152D02*
X185839763Y-62131723D01*
X185839763Y-62131723D02*
X185625478Y-62131723D01*
X185625478Y-62131723D02*
X185482620Y-62060295D01*
X185482620Y-62060295D02*
X185411192Y-61917437D01*
X185411192Y-61917437D02*
X185411192Y-61846009D01*
X185411192Y-61846009D02*
X185482620Y-61703152D01*
X185482620Y-61703152D02*
X185625478Y-61631723D01*
X185625478Y-61631723D02*
X185839763Y-61631723D01*
X185839763Y-61631723D02*
X185982620Y-61703152D01*
X186696906Y-62631723D02*
X186696906Y-61631723D01*
X186696906Y-61131723D02*
X186625478Y-61203152D01*
X186625478Y-61203152D02*
X186696906Y-61274580D01*
X186696906Y-61274580D02*
X186768335Y-61203152D01*
X186768335Y-61203152D02*
X186696906Y-61131723D01*
X186696906Y-61131723D02*
X186696906Y-61274580D01*
X187625478Y-62631723D02*
X187482621Y-62560295D01*
X187482621Y-62560295D02*
X187411192Y-62488866D01*
X187411192Y-62488866D02*
X187339764Y-62346009D01*
X187339764Y-62346009D02*
X187339764Y-61917437D01*
X187339764Y-61917437D02*
X187411192Y-61774580D01*
X187411192Y-61774580D02*
X187482621Y-61703152D01*
X187482621Y-61703152D02*
X187625478Y-61631723D01*
X187625478Y-61631723D02*
X187839764Y-61631723D01*
X187839764Y-61631723D02*
X187982621Y-61703152D01*
X187982621Y-61703152D02*
X188054050Y-61774580D01*
X188054050Y-61774580D02*
X188125478Y-61917437D01*
X188125478Y-61917437D02*
X188125478Y-62346009D01*
X188125478Y-62346009D02*
X188054050Y-62488866D01*
X188054050Y-62488866D02*
X187982621Y-62560295D01*
X187982621Y-62560295D02*
X187839764Y-62631723D01*
X187839764Y-62631723D02*
X187625478Y-62631723D01*
X188768335Y-61631723D02*
X188768335Y-62631723D01*
X188768335Y-61774580D02*
X188839764Y-61703152D01*
X188839764Y-61703152D02*
X188982621Y-61631723D01*
X188982621Y-61631723D02*
X189196907Y-61631723D01*
X189196907Y-61631723D02*
X189339764Y-61703152D01*
X189339764Y-61703152D02*
X189411193Y-61846009D01*
X189411193Y-61846009D02*
X189411193Y-62631723D01*
X190125478Y-62488866D02*
X190196907Y-62560295D01*
X190196907Y-62560295D02*
X190125478Y-62631723D01*
X190125478Y-62631723D02*
X190054050Y-62560295D01*
X190054050Y-62560295D02*
X190125478Y-62488866D01*
X190125478Y-62488866D02*
X190125478Y-62631723D01*
X190125478Y-61703152D02*
X190196907Y-61774580D01*
X190196907Y-61774580D02*
X190125478Y-61846009D01*
X190125478Y-61846009D02*
X190054050Y-61774580D01*
X190054050Y-61774580D02*
X190125478Y-61703152D01*
X190125478Y-61703152D02*
X190125478Y-61846009D01*
X192768336Y-62631723D02*
X191911193Y-62631723D01*
X192339764Y-62631723D02*
X192339764Y-61131723D01*
X192339764Y-61131723D02*
X192196907Y-61346009D01*
X192196907Y-61346009D02*
X192054050Y-61488866D01*
X192054050Y-61488866D02*
X191911193Y-61560295D01*
X193411192Y-62488866D02*
X193482621Y-62560295D01*
X193482621Y-62560295D02*
X193411192Y-62631723D01*
X193411192Y-62631723D02*
X193339764Y-62560295D01*
X193339764Y-62560295D02*
X193411192Y-62488866D01*
X193411192Y-62488866D02*
X193411192Y-62631723D01*
X194411193Y-61131723D02*
X194554050Y-61131723D01*
X194554050Y-61131723D02*
X194696907Y-61203152D01*
X194696907Y-61203152D02*
X194768336Y-61274580D01*
X194768336Y-61274580D02*
X194839764Y-61417437D01*
X194839764Y-61417437D02*
X194911193Y-61703152D01*
X194911193Y-61703152D02*
X194911193Y-62060295D01*
X194911193Y-62060295D02*
X194839764Y-62346009D01*
X194839764Y-62346009D02*
X194768336Y-62488866D01*
X194768336Y-62488866D02*
X194696907Y-62560295D01*
X194696907Y-62560295D02*
X194554050Y-62631723D01*
X194554050Y-62631723D02*
X194411193Y-62631723D01*
X194411193Y-62631723D02*
X194268336Y-62560295D01*
X194268336Y-62560295D02*
X194196907Y-62488866D01*
X194196907Y-62488866D02*
X194125478Y-62346009D01*
X194125478Y-62346009D02*
X194054050Y-62060295D01*
X194054050Y-62060295D02*
X194054050Y-61703152D01*
X194054050Y-61703152D02*
X194125478Y-61417437D01*
X194125478Y-61417437D02*
X194196907Y-61274580D01*
X194196907Y-61274580D02*
X194268336Y-61203152D01*
X194268336Y-61203152D02*
X194411193Y-61131723D01*
X125092094Y-61474010D02*
X126877808Y-61474010D01*
X125806380Y-60402582D02*
X125092094Y-63616868D01*
X126639713Y-62545439D02*
X124853999Y-62545439D01*
X125925427Y-63616868D02*
X126639713Y-60402582D01*
X129615904Y-63140677D02*
X129615904Y-60640677D01*
X129615904Y-60640677D02*
X131044475Y-63140677D01*
X131044475Y-63140677D02*
X131044475Y-60640677D01*
X133306380Y-63140677D02*
X133306380Y-61831153D01*
X133306380Y-61831153D02*
X133187333Y-61593058D01*
X133187333Y-61593058D02*
X132949237Y-61474010D01*
X132949237Y-61474010D02*
X132473047Y-61474010D01*
X132473047Y-61474010D02*
X132234952Y-61593058D01*
X133306380Y-63021630D02*
X133068285Y-63140677D01*
X133068285Y-63140677D02*
X132473047Y-63140677D01*
X132473047Y-63140677D02*
X132234952Y-63021630D01*
X132234952Y-63021630D02*
X132115904Y-62783534D01*
X132115904Y-62783534D02*
X132115904Y-62545439D01*
X132115904Y-62545439D02*
X132234952Y-62307344D01*
X132234952Y-62307344D02*
X132473047Y-62188296D01*
X132473047Y-62188296D02*
X133068285Y-62188296D01*
X133068285Y-62188296D02*
X133306380Y-62069249D01*
X134496857Y-61474010D02*
X134496857Y-63140677D01*
X134496857Y-61712106D02*
X134615904Y-61593058D01*
X134615904Y-61593058D02*
X134853999Y-61474010D01*
X134853999Y-61474010D02*
X135211142Y-61474010D01*
X135211142Y-61474010D02*
X135449238Y-61593058D01*
X135449238Y-61593058D02*
X135568285Y-61831153D01*
X135568285Y-61831153D02*
X135568285Y-63140677D01*
X137115904Y-63140677D02*
X136877809Y-63021630D01*
X136877809Y-63021630D02*
X136758762Y-62902582D01*
X136758762Y-62902582D02*
X136639714Y-62664487D01*
X136639714Y-62664487D02*
X136639714Y-61950201D01*
X136639714Y-61950201D02*
X136758762Y-61712106D01*
X136758762Y-61712106D02*
X136877809Y-61593058D01*
X136877809Y-61593058D02*
X137115904Y-61474010D01*
X137115904Y-61474010D02*
X137473047Y-61474010D01*
X137473047Y-61474010D02*
X137711143Y-61593058D01*
X137711143Y-61593058D02*
X137830190Y-61712106D01*
X137830190Y-61712106D02*
X137949238Y-61950201D01*
X137949238Y-61950201D02*
X137949238Y-62664487D01*
X137949238Y-62664487D02*
X137830190Y-62902582D01*
X137830190Y-62902582D02*
X137711143Y-63021630D01*
X137711143Y-63021630D02*
X137473047Y-63140677D01*
X137473047Y-63140677D02*
X137115904Y-63140677D01*
X140806381Y-63021630D02*
X141163524Y-63140677D01*
X141163524Y-63140677D02*
X141758762Y-63140677D01*
X141758762Y-63140677D02*
X141996857Y-63021630D01*
X141996857Y-63021630D02*
X142115905Y-62902582D01*
X142115905Y-62902582D02*
X142234952Y-62664487D01*
X142234952Y-62664487D02*
X142234952Y-62426391D01*
X142234952Y-62426391D02*
X142115905Y-62188296D01*
X142115905Y-62188296D02*
X141996857Y-62069249D01*
X141996857Y-62069249D02*
X141758762Y-61950201D01*
X141758762Y-61950201D02*
X141282571Y-61831153D01*
X141282571Y-61831153D02*
X141044476Y-61712106D01*
X141044476Y-61712106D02*
X140925429Y-61593058D01*
X140925429Y-61593058D02*
X140806381Y-61354963D01*
X140806381Y-61354963D02*
X140806381Y-61116868D01*
X140806381Y-61116868D02*
X140925429Y-60878772D01*
X140925429Y-60878772D02*
X141044476Y-60759725D01*
X141044476Y-60759725D02*
X141282571Y-60640677D01*
X141282571Y-60640677D02*
X141877810Y-60640677D01*
X141877810Y-60640677D02*
X142234952Y-60759725D01*
X144377809Y-61474010D02*
X144377809Y-63140677D01*
X143306381Y-61474010D02*
X143306381Y-62783534D01*
X143306381Y-62783534D02*
X143425428Y-63021630D01*
X143425428Y-63021630D02*
X143663523Y-63140677D01*
X143663523Y-63140677D02*
X144020666Y-63140677D01*
X144020666Y-63140677D02*
X144258762Y-63021630D01*
X144258762Y-63021630D02*
X144377809Y-62902582D01*
X145568286Y-63140677D02*
X145568286Y-61474010D01*
X145568286Y-61712106D02*
X145687333Y-61593058D01*
X145687333Y-61593058D02*
X145925428Y-61474010D01*
X145925428Y-61474010D02*
X146282571Y-61474010D01*
X146282571Y-61474010D02*
X146520667Y-61593058D01*
X146520667Y-61593058D02*
X146639714Y-61831153D01*
X146639714Y-61831153D02*
X146639714Y-63140677D01*
X146639714Y-61831153D02*
X146758762Y-61593058D01*
X146758762Y-61593058D02*
X146996857Y-61474010D01*
X146996857Y-61474010D02*
X147354000Y-61474010D01*
X147354000Y-61474010D02*
X147592095Y-61593058D01*
X147592095Y-61593058D02*
X147711143Y-61831153D01*
X147711143Y-61831153D02*
X147711143Y-63140677D01*
X149258761Y-63140677D02*
X149020666Y-63021630D01*
X149020666Y-63021630D02*
X148901619Y-62902582D01*
X148901619Y-62902582D02*
X148782571Y-62664487D01*
X148782571Y-62664487D02*
X148782571Y-61950201D01*
X148782571Y-61950201D02*
X148901619Y-61712106D01*
X148901619Y-61712106D02*
X149020666Y-61593058D01*
X149020666Y-61593058D02*
X149258761Y-61474010D01*
X149258761Y-61474010D02*
X149615904Y-61474010D01*
X149615904Y-61474010D02*
X149854000Y-61593058D01*
X149854000Y-61593058D02*
X149973047Y-61712106D01*
X149973047Y-61712106D02*
X150092095Y-61950201D01*
X150092095Y-61950201D02*
X150092095Y-62664487D01*
X150092095Y-62664487D02*
X149973047Y-62902582D01*
X149973047Y-62902582D02*
X149854000Y-63021630D01*
X149854000Y-63021630D02*
X149615904Y-63140677D01*
X149615904Y-63140677D02*
X149258761Y-63140677D01*
X154496857Y-63140677D02*
X153663524Y-61950201D01*
X153068286Y-63140677D02*
X153068286Y-60640677D01*
X153068286Y-60640677D02*
X154020667Y-60640677D01*
X154020667Y-60640677D02*
X154258762Y-60759725D01*
X154258762Y-60759725D02*
X154377809Y-60878772D01*
X154377809Y-60878772D02*
X154496857Y-61116868D01*
X154496857Y-61116868D02*
X154496857Y-61474010D01*
X154496857Y-61474010D02*
X154377809Y-61712106D01*
X154377809Y-61712106D02*
X154258762Y-61831153D01*
X154258762Y-61831153D02*
X154020667Y-61950201D01*
X154020667Y-61950201D02*
X153068286Y-61950201D01*
X155925428Y-63140677D02*
X155687333Y-63021630D01*
X155687333Y-63021630D02*
X155568286Y-62902582D01*
X155568286Y-62902582D02*
X155449238Y-62664487D01*
X155449238Y-62664487D02*
X155449238Y-61950201D01*
X155449238Y-61950201D02*
X155568286Y-61712106D01*
X155568286Y-61712106D02*
X155687333Y-61593058D01*
X155687333Y-61593058D02*
X155925428Y-61474010D01*
X155925428Y-61474010D02*
X156282571Y-61474010D01*
X156282571Y-61474010D02*
X156520667Y-61593058D01*
X156520667Y-61593058D02*
X156639714Y-61712106D01*
X156639714Y-61712106D02*
X156758762Y-61950201D01*
X156758762Y-61950201D02*
X156758762Y-62664487D01*
X156758762Y-62664487D02*
X156639714Y-62902582D01*
X156639714Y-62902582D02*
X156520667Y-63021630D01*
X156520667Y-63021630D02*
X156282571Y-63140677D01*
X156282571Y-63140677D02*
X155925428Y-63140677D01*
X157830191Y-63140677D02*
X157830191Y-60640677D01*
X157830191Y-61593058D02*
X158068286Y-61474010D01*
X158068286Y-61474010D02*
X158544476Y-61474010D01*
X158544476Y-61474010D02*
X158782572Y-61593058D01*
X158782572Y-61593058D02*
X158901619Y-61712106D01*
X158901619Y-61712106D02*
X159020667Y-61950201D01*
X159020667Y-61950201D02*
X159020667Y-62664487D01*
X159020667Y-62664487D02*
X158901619Y-62902582D01*
X158901619Y-62902582D02*
X158782572Y-63021630D01*
X158782572Y-63021630D02*
X158544476Y-63140677D01*
X158544476Y-63140677D02*
X158068286Y-63140677D01*
X158068286Y-63140677D02*
X157830191Y-63021630D01*
X160449238Y-63140677D02*
X160211143Y-63021630D01*
X160211143Y-63021630D02*
X160092096Y-62902582D01*
X160092096Y-62902582D02*
X159973048Y-62664487D01*
X159973048Y-62664487D02*
X159973048Y-61950201D01*
X159973048Y-61950201D02*
X160092096Y-61712106D01*
X160092096Y-61712106D02*
X160211143Y-61593058D01*
X160211143Y-61593058D02*
X160449238Y-61474010D01*
X160449238Y-61474010D02*
X160806381Y-61474010D01*
X160806381Y-61474010D02*
X161044477Y-61593058D01*
X161044477Y-61593058D02*
X161163524Y-61712106D01*
X161163524Y-61712106D02*
X161282572Y-61950201D01*
X161282572Y-61950201D02*
X161282572Y-62664487D01*
X161282572Y-62664487D02*
X161163524Y-62902582D01*
X161163524Y-62902582D02*
X161044477Y-63021630D01*
X161044477Y-63021630D02*
X160806381Y-63140677D01*
X160806381Y-63140677D02*
X160449238Y-63140677D01*
X161996858Y-61474010D02*
X162949239Y-61474010D01*
X162354001Y-60640677D02*
X162354001Y-62783534D01*
X162354001Y-62783534D02*
X162473048Y-63021630D01*
X162473048Y-63021630D02*
X162711143Y-63140677D01*
X162711143Y-63140677D02*
X162949239Y-63140677D01*
X165568286Y-61474010D02*
X167354000Y-61474010D01*
X166282572Y-60402582D02*
X165568286Y-63616868D01*
X167115905Y-62545439D02*
X165330191Y-62545439D01*
X166401619Y-63616868D02*
X167115905Y-60402582D01*
D10*
X104080190Y-61169069D02*
X104127809Y-61169069D01*
X104127809Y-61169069D02*
X104175428Y-61192879D01*
X104175428Y-61192879D02*
X104199238Y-61216688D01*
X104199238Y-61216688D02*
X104223047Y-61264307D01*
X104223047Y-61264307D02*
X104246857Y-61359545D01*
X104246857Y-61359545D02*
X104246857Y-61478593D01*
X104246857Y-61478593D02*
X104223047Y-61573831D01*
X104223047Y-61573831D02*
X104199238Y-61621450D01*
X104199238Y-61621450D02*
X104175428Y-61645260D01*
X104175428Y-61645260D02*
X104127809Y-61669069D01*
X104127809Y-61669069D02*
X104080190Y-61669069D01*
X104080190Y-61669069D02*
X104032571Y-61645260D01*
X104032571Y-61645260D02*
X104008762Y-61621450D01*
X104008762Y-61621450D02*
X103984952Y-61573831D01*
X103984952Y-61573831D02*
X103961143Y-61478593D01*
X103961143Y-61478593D02*
X103961143Y-61359545D01*
X103961143Y-61359545D02*
X103984952Y-61264307D01*
X103984952Y-61264307D02*
X104008762Y-61216688D01*
X104008762Y-61216688D02*
X104032571Y-61192879D01*
X104032571Y-61192879D02*
X104080190Y-61169069D01*
X103961143Y-101335736D02*
X103961143Y-101669069D01*
X103842095Y-101145260D02*
X103723048Y-101502402D01*
X103723048Y-101502402D02*
X104032571Y-101502402D01*
X104318285Y-101169069D02*
X104365904Y-101169069D01*
X104365904Y-101169069D02*
X104413523Y-101192879D01*
X104413523Y-101192879D02*
X104437333Y-101216688D01*
X104437333Y-101216688D02*
X104461142Y-101264307D01*
X104461142Y-101264307D02*
X104484952Y-101359545D01*
X104484952Y-101359545D02*
X104484952Y-101478593D01*
X104484952Y-101478593D02*
X104461142Y-101573831D01*
X104461142Y-101573831D02*
X104437333Y-101621450D01*
X104437333Y-101621450D02*
X104413523Y-101645260D01*
X104413523Y-101645260D02*
X104365904Y-101669069D01*
X104365904Y-101669069D02*
X104318285Y-101669069D01*
X104318285Y-101669069D02*
X104270666Y-101645260D01*
X104270666Y-101645260D02*
X104246857Y-101621450D01*
X104246857Y-101621450D02*
X104223047Y-101573831D01*
X104223047Y-101573831D02*
X104199238Y-101478593D01*
X104199238Y-101478593D02*
X104199238Y-101359545D01*
X104199238Y-101359545D02*
X104223047Y-101264307D01*
X104223047Y-101264307D02*
X104246857Y-101216688D01*
X104246857Y-101216688D02*
X104270666Y-101192879D01*
X104270666Y-101192879D02*
X104318285Y-101169069D01*
X104008762Y-71669069D02*
X103723048Y-71669069D01*
X103865905Y-71669069D02*
X103865905Y-71169069D01*
X103865905Y-71169069D02*
X103818286Y-71240498D01*
X103818286Y-71240498D02*
X103770667Y-71288117D01*
X103770667Y-71288117D02*
X103723048Y-71311926D01*
X104318285Y-71169069D02*
X104365904Y-71169069D01*
X104365904Y-71169069D02*
X104413523Y-71192879D01*
X104413523Y-71192879D02*
X104437333Y-71216688D01*
X104437333Y-71216688D02*
X104461142Y-71264307D01*
X104461142Y-71264307D02*
X104484952Y-71359545D01*
X104484952Y-71359545D02*
X104484952Y-71478593D01*
X104484952Y-71478593D02*
X104461142Y-71573831D01*
X104461142Y-71573831D02*
X104437333Y-71621450D01*
X104437333Y-71621450D02*
X104413523Y-71645260D01*
X104413523Y-71645260D02*
X104365904Y-71669069D01*
X104365904Y-71669069D02*
X104318285Y-71669069D01*
X104318285Y-71669069D02*
X104270666Y-71645260D01*
X104270666Y-71645260D02*
X104246857Y-71621450D01*
X104246857Y-71621450D02*
X104223047Y-71573831D01*
X104223047Y-71573831D02*
X104199238Y-71478593D01*
X104199238Y-71478593D02*
X104199238Y-71359545D01*
X104199238Y-71359545D02*
X104223047Y-71264307D01*
X104223047Y-71264307D02*
X104246857Y-71216688D01*
X104246857Y-71216688D02*
X104270666Y-71192879D01*
X104270666Y-71192879D02*
X104318285Y-71169069D01*
X103984952Y-111169069D02*
X103746857Y-111169069D01*
X103746857Y-111169069D02*
X103723048Y-111407164D01*
X103723048Y-111407164D02*
X103746857Y-111383355D01*
X103746857Y-111383355D02*
X103794476Y-111359545D01*
X103794476Y-111359545D02*
X103913524Y-111359545D01*
X103913524Y-111359545D02*
X103961143Y-111383355D01*
X103961143Y-111383355D02*
X103984952Y-111407164D01*
X103984952Y-111407164D02*
X104008762Y-111454783D01*
X104008762Y-111454783D02*
X104008762Y-111573831D01*
X104008762Y-111573831D02*
X103984952Y-111621450D01*
X103984952Y-111621450D02*
X103961143Y-111645260D01*
X103961143Y-111645260D02*
X103913524Y-111669069D01*
X103913524Y-111669069D02*
X103794476Y-111669069D01*
X103794476Y-111669069D02*
X103746857Y-111645260D01*
X103746857Y-111645260D02*
X103723048Y-111621450D01*
X104318285Y-111169069D02*
X104365904Y-111169069D01*
X104365904Y-111169069D02*
X104413523Y-111192879D01*
X104413523Y-111192879D02*
X104437333Y-111216688D01*
X104437333Y-111216688D02*
X104461142Y-111264307D01*
X104461142Y-111264307D02*
X104484952Y-111359545D01*
X104484952Y-111359545D02*
X104484952Y-111478593D01*
X104484952Y-111478593D02*
X104461142Y-111573831D01*
X104461142Y-111573831D02*
X104437333Y-111621450D01*
X104437333Y-111621450D02*
X104413523Y-111645260D01*
X104413523Y-111645260D02*
X104365904Y-111669069D01*
X104365904Y-111669069D02*
X104318285Y-111669069D01*
X104318285Y-111669069D02*
X104270666Y-111645260D01*
X104270666Y-111645260D02*
X104246857Y-111621450D01*
X104246857Y-111621450D02*
X104223047Y-111573831D01*
X104223047Y-111573831D02*
X104199238Y-111478593D01*
X104199238Y-111478593D02*
X104199238Y-111359545D01*
X104199238Y-111359545D02*
X104223047Y-111264307D01*
X104223047Y-111264307D02*
X104246857Y-111216688D01*
X104246857Y-111216688D02*
X104270666Y-111192879D01*
X104270666Y-111192879D02*
X104318285Y-111169069D01*
D13*
%TO.C,R24*%
X136560552Y-96881048D03*
X136560552Y-97521048D03*
%TD*%
D14*
%TO.C,mouse-bite-2mm-slot*%
X132360000Y-110194000D03*
X133860000Y-110194000D03*
X132360000Y-109444000D03*
X133860000Y-109444000D03*
X132360000Y-108694000D03*
X133860000Y-108694000D03*
%TD*%
%TO.C,mouse-bite-2mm-slot*%
X172360000Y-116694000D03*
X172360000Y-118194000D03*
X173110000Y-116694000D03*
X173110000Y-118194000D03*
X173860000Y-116694000D03*
X173860000Y-118194000D03*
%TD*%
D15*
%TO.C,U8*%
X137540952Y-112733048D03*
X138490952Y-112733048D03*
X139440952Y-112733048D03*
X139440952Y-111133048D03*
X137540952Y-111133048D03*
%TD*%
D16*
%TO.C,*%
X154918207Y-115359660D03*
%TD*%
D17*
%TO.C,C11*%
X156118552Y-96505048D03*
X156118552Y-95865048D03*
%TD*%
D16*
%TO.C,*%
X128922578Y-115348440D03*
%TD*%
%TO.C,*%
X131026379Y-113244639D03*
%TD*%
D18*
%TO.C,U1*%
X139684262Y-80731723D03*
D19*
X140161560Y-80961533D03*
X140515113Y-81315087D03*
X140868667Y-81668640D03*
D20*
X141098476Y-82145938D03*
D21*
X141770227Y-82145938D03*
D22*
X142000037Y-81668640D03*
X142353591Y-81315087D03*
X142707144Y-80961533D03*
D23*
X143184442Y-80731724D03*
D24*
X143184442Y-80059973D03*
D19*
X142707144Y-79830163D03*
X142353591Y-79476609D03*
X142000037Y-79123056D03*
D25*
X141770228Y-78645758D03*
D26*
X141098477Y-78645758D03*
D22*
X140868667Y-79123056D03*
X140515113Y-79476609D03*
X140161560Y-79830163D03*
D27*
X139684262Y-80059972D03*
%TD*%
D28*
%TO.C,*%
X118597831Y-93569272D03*
%TD*%
D29*
%TO.C,R12*%
X137334752Y-76077848D03*
X136694752Y-76077848D03*
%TD*%
D14*
%TO.C,mouse-bite-2mm-slot*%
X106357000Y-71194000D03*
X107857000Y-71194000D03*
X106357000Y-70444000D03*
X107857000Y-70444000D03*
X106357000Y-69694000D03*
X107857000Y-69694000D03*
%TD*%
D29*
%TO.C,R13*%
X137334752Y-77347848D03*
X136694752Y-77347848D03*
%TD*%
D30*
%TO.C,C16*%
X136897952Y-84002648D03*
X137537952Y-84002648D03*
%TD*%
D14*
%TO.C,mouse-bite-2mm-slot*%
X119357000Y-64694000D03*
X119357000Y-66194000D03*
X120107000Y-64694000D03*
X120107000Y-66194000D03*
X120857000Y-64694000D03*
X120857000Y-66194000D03*
%TD*%
D28*
%TO.C,*%
X131026379Y-89348256D03*
%TD*%
D31*
%TO.C,LED1*%
X120211386Y-84028505D03*
X119352866Y-84028505D03*
X119352866Y-85059745D03*
X120211386Y-85059745D03*
%TD*%
D28*
%TO.C,*%
X147697429Y-67579715D03*
%TD*%
%TO.C,*%
X163318119Y-89360485D03*
%TD*%
D18*
%TO.C,U1*%
X139687262Y-106731723D03*
D19*
X140164560Y-106961533D03*
X140518113Y-107315087D03*
X140871667Y-107668640D03*
D20*
X141101476Y-108145938D03*
D21*
X141773227Y-108145938D03*
D22*
X142003037Y-107668640D03*
X142356591Y-107315087D03*
X142710144Y-106961533D03*
D23*
X143187442Y-106731724D03*
D24*
X143187442Y-106059973D03*
D19*
X142710144Y-105830163D03*
X142356591Y-105476609D03*
X142003037Y-105123056D03*
D25*
X141773228Y-104645758D03*
D26*
X141101477Y-104645758D03*
D22*
X140871667Y-105123056D03*
X140518113Y-105476609D03*
X140164560Y-105830163D03*
D27*
X139687262Y-106059972D03*
%TD*%
D14*
%TO.C,mouse-bite-2mm-slot*%
X145360000Y-90694000D03*
X145360000Y-92194000D03*
X146110000Y-90694000D03*
X146110000Y-92194000D03*
X146860000Y-90694000D03*
X146860000Y-92194000D03*
%TD*%
%TO.C,mouse-bite-2mm-slot*%
X119360000Y-90694000D03*
X119360000Y-92194000D03*
X120110000Y-90694000D03*
X120110000Y-92194000D03*
X120860000Y-90694000D03*
X120860000Y-92194000D03*
%TD*%
D28*
%TO.C,*%
X137284469Y-89359660D03*
%TD*%
%TO.C,*%
X118597831Y-67569088D03*
%TD*%
%TO.C,*%
X113385976Y-115348829D03*
%TD*%
D15*
%TO.C,U8*%
X137537952Y-86733048D03*
X138487952Y-86733048D03*
X139437952Y-86733048D03*
X139437952Y-85133048D03*
X137537952Y-85133048D03*
%TD*%
D29*
%TO.C,R13*%
X137337752Y-103347848D03*
X136697752Y-103347848D03*
%TD*%
D32*
%TO.C,SWCLK*%
X136455952Y-81361048D03*
%TD*%
D16*
%TO.C,*%
X157019008Y-87255859D03*
%TD*%
D30*
%TO.C,R18*%
X111715126Y-80654125D03*
X112355126Y-80654125D03*
%TD*%
D29*
%TO.C,R23*%
X155063952Y-73944248D03*
X154423952Y-73944248D03*
%TD*%
D14*
%TO.C,mouse-bite-2mm-slot*%
X145360000Y-116694000D03*
X145360000Y-118194000D03*
X146110000Y-116694000D03*
X146110000Y-118194000D03*
X146860000Y-116694000D03*
X146860000Y-118194000D03*
%TD*%
D28*
%TO.C,*%
X151629352Y-67582448D03*
%TD*%
%TO.C,*%
X131026379Y-115348440D03*
%TD*%
D14*
%TO.C,mouse-bite-2mm-slot*%
X158357000Y-84194000D03*
X159857000Y-84194000D03*
X158357000Y-83444000D03*
X159857000Y-83444000D03*
X158357000Y-82694000D03*
X159857000Y-82694000D03*
%TD*%
D33*
%TO.C,C9*%
X149034552Y-104567048D03*
X149994552Y-104567048D03*
%TD*%
D28*
%TO.C,*%
X167966211Y-93564133D03*
%TD*%
%TO.C,*%
X144611134Y-93575678D03*
%TD*%
D14*
%TO.C,mouse-bite-2mm-slot*%
X145360000Y-110694000D03*
X145360000Y-112194000D03*
X146110000Y-110694000D03*
X146110000Y-112194000D03*
X146860000Y-110694000D03*
X146860000Y-112194000D03*
%TD*%
D16*
%TO.C,*%
X157022008Y-113255859D03*
%TD*%
D30*
%TO.C,C16*%
X136900952Y-110002648D03*
X137540952Y-110002648D03*
%TD*%
D34*
%TO.C,R21*%
X144864026Y-107490374D03*
X144411478Y-107942922D03*
%TD*%
D28*
%TO.C,*%
X109178374Y-89348645D03*
%TD*%
D14*
%TO.C,mouse-bite-2mm-slot*%
X185100754Y-71193999D03*
X186600754Y-71193999D03*
X185100754Y-70443999D03*
X186600754Y-70443999D03*
X185100754Y-69693999D03*
X186600754Y-69693999D03*
%TD*%
D28*
%TO.C,*%
X163321119Y-115360485D03*
%TD*%
D34*
%TO.C,R6*%
X140354457Y-82823063D03*
X139901909Y-83275611D03*
%TD*%
D13*
%TO.C,R9*%
X127148126Y-88716125D03*
X127148126Y-89356125D03*
%TD*%
D28*
%TO.C,*%
X165424920Y-115360485D03*
%TD*%
D29*
%TO.C,C15*%
X139217352Y-113863448D03*
X138577352Y-113863448D03*
%TD*%
D17*
%TO.C,C11*%
X156115552Y-70505048D03*
X156115552Y-69865048D03*
%TD*%
D35*
%TO.C,BAT-*%
X109495126Y-99034309D03*
%TD*%
D28*
%TO.C,*%
X139388270Y-89359660D03*
%TD*%
D14*
%TO.C,mouse-bite-2mm-slot*%
X158360000Y-110194000D03*
X159860000Y-110194000D03*
X158360000Y-109444000D03*
X159860000Y-109444000D03*
X158360000Y-108694000D03*
X159860000Y-108694000D03*
%TD*%
D28*
%TO.C,*%
X139391270Y-115359660D03*
%TD*%
%TO.C,*%
X165421920Y-89360485D03*
%TD*%
D14*
%TO.C,mouse-bite-2mm-slot*%
X132357000Y-84194000D03*
X133857000Y-84194000D03*
X132357000Y-83444000D03*
X133857000Y-83444000D03*
X132357000Y-82694000D03*
X133857000Y-82694000D03*
%TD*%
%TO.C,mouse-bite-2mm-slot*%
X172360000Y-90694000D03*
X172360000Y-92194000D03*
X173110000Y-90694000D03*
X173110000Y-92194000D03*
X173860000Y-90694000D03*
X173860000Y-92194000D03*
%TD*%
%TO.C,mouse-bite-2mm-slot*%
X106360000Y-97194000D03*
X107860000Y-97194000D03*
X106360000Y-96444000D03*
X107860000Y-96444000D03*
X106360000Y-95694000D03*
X107860000Y-95694000D03*
%TD*%
D34*
%TO.C,R6*%
X140357457Y-108823063D03*
X139904909Y-109275611D03*
%TD*%
D13*
%TO.C,R24*%
X136557552Y-70881048D03*
X136557552Y-71521048D03*
%TD*%
D36*
%TO.C,U3*%
X153956194Y-68522021D03*
X155031195Y-68522020D03*
X156106194Y-68522020D03*
X157181196Y-68522019D03*
%TD*%
D14*
%TO.C,mouse-bite-2mm-slot*%
X185103754Y-97193999D03*
X186603754Y-97193999D03*
X185103754Y-96443999D03*
X186603754Y-96443999D03*
X185103754Y-95693999D03*
X186603754Y-95693999D03*
%TD*%
D28*
%TO.C,*%
X167963211Y-67564133D03*
%TD*%
%TO.C,*%
X178375144Y-67564263D03*
%TD*%
D36*
%TO.C,U3*%
X153959194Y-94522021D03*
X155034195Y-94522020D03*
X156109194Y-94522020D03*
X157184196Y-94522019D03*
%TD*%
D28*
%TO.C,*%
X157022008Y-115359660D03*
%TD*%
D14*
%TO.C,mouse-bite-2mm-slot*%
X119360000Y-116694000D03*
X119360000Y-118194000D03*
X120110000Y-116694000D03*
X120110000Y-118194000D03*
X120860000Y-116694000D03*
X120860000Y-118194000D03*
%TD*%
D28*
%TO.C,*%
X109178374Y-115348829D03*
%TD*%
%TO.C,*%
X161214318Y-89360485D03*
%TD*%
D14*
%TO.C,mouse-bite-2mm-slot*%
X172357000Y-64694000D03*
X172357000Y-66194000D03*
X173107000Y-64694000D03*
X173107000Y-66194000D03*
X173857000Y-64694000D03*
X173857000Y-66194000D03*
%TD*%
D34*
%TO.C,R21*%
X144861026Y-81490374D03*
X144408478Y-81942922D03*
%TD*%
D30*
%TO.C,R18*%
X111715126Y-106654309D03*
X112355126Y-106654309D03*
%TD*%
D28*
%TO.C,*%
X157019008Y-89359660D03*
%TD*%
D17*
%TO.C,C10*%
X157185352Y-96505048D03*
X157185352Y-95865048D03*
%TD*%
D37*
%TO.C,C4*%
X139890485Y-108090218D03*
X139437937Y-107637670D03*
%TD*%
%TO.C,C4*%
X139887485Y-82090218D03*
X139434937Y-81637670D03*
%TD*%
D28*
%TO.C,*%
X121687126Y-67573125D03*
%TD*%
D13*
%TO.C,R9*%
X127148126Y-114716309D03*
X127148126Y-115356309D03*
%TD*%
D17*
%TO.C,R17*%
X111654126Y-108244309D03*
X111654126Y-107604309D03*
%TD*%
D28*
%TO.C,*%
X141220419Y-93582318D03*
%TD*%
D29*
%TO.C,R10*%
X124435926Y-82799525D03*
X123795926Y-82799525D03*
%TD*%
%TO.C,R12*%
X137337752Y-102077848D03*
X136697752Y-102077848D03*
%TD*%
D17*
%TO.C,R11*%
X131016500Y-85162979D03*
X131016500Y-84522979D03*
%TD*%
D29*
%TO.C,R10*%
X124435926Y-108799709D03*
X123795926Y-108799709D03*
%TD*%
D28*
%TO.C,*%
X135180668Y-89359660D03*
%TD*%
%TO.C,*%
X141217419Y-67582318D03*
%TD*%
D38*
%TO.C,SW1*%
X115623126Y-106670309D03*
X124573126Y-106670309D03*
X115623126Y-102170309D03*
X124573126Y-102170309D03*
%TD*%
D32*
%TO.C,SWDIO*%
X136455952Y-79430648D03*
%TD*%
D16*
%TO.C,*%
X131026379Y-87244455D03*
%TD*%
D32*
%TO.C,SWCLK*%
X136458952Y-107361048D03*
%TD*%
D28*
%TO.C,*%
X151632352Y-93582448D03*
%TD*%
D38*
%TO.C,SW1*%
X115623126Y-80670125D03*
X124573126Y-80670125D03*
X115623126Y-76170125D03*
X124573126Y-76170125D03*
%TD*%
D29*
%TO.C,R22*%
X146481127Y-81496030D03*
X145841127Y-81496030D03*
%TD*%
D28*
%TO.C,*%
X111282175Y-115348829D03*
%TD*%
%TO.C,*%
X137287469Y-115359660D03*
%TD*%
D29*
%TO.C,R23*%
X155066952Y-99944248D03*
X154426952Y-99944248D03*
%TD*%
D17*
%TO.C,R11*%
X131016500Y-111163163D03*
X131016500Y-110523163D03*
%TD*%
D28*
%TO.C,*%
X161217318Y-115360485D03*
%TD*%
D29*
%TO.C,C15*%
X139214352Y-87863448D03*
X138574352Y-87863448D03*
%TD*%
D14*
%TO.C,mouse-bite-2mm-slot*%
X145357000Y-64694000D03*
X145357000Y-66194000D03*
X146107000Y-64694000D03*
X146107000Y-66194000D03*
X146857000Y-64694000D03*
X146857000Y-66194000D03*
%TD*%
%TO.C,mouse-bite-2mm-slot*%
X145357000Y-84694000D03*
X145357000Y-86194000D03*
X146107000Y-84694000D03*
X146107000Y-86194000D03*
X146857000Y-84694000D03*
X146857000Y-86194000D03*
%TD*%
D17*
%TO.C,C10*%
X157182352Y-70505048D03*
X157182352Y-69865048D03*
%TD*%
D28*
%TO.C,*%
X113385976Y-89348645D03*
%TD*%
%TO.C,*%
X135183668Y-115359660D03*
%TD*%
D37*
%TO.C,C5*%
X139279828Y-108700875D03*
X138827280Y-108248327D03*
%TD*%
D16*
%TO.C,*%
X128922578Y-89348256D03*
%TD*%
%TO.C,*%
X154915207Y-89359660D03*
%TD*%
D28*
%TO.C,*%
X111282175Y-89348645D03*
%TD*%
D13*
%TO.C,C14*%
X113305126Y-76143125D03*
X113305126Y-76783125D03*
%TD*%
D32*
%TO.C,SWDIO*%
X136458952Y-105430648D03*
%TD*%
D28*
%TO.C,*%
X144608134Y-67575678D03*
%TD*%
D31*
%TO.C,LED1*%
X120211386Y-110028689D03*
X119352866Y-110028689D03*
X119352866Y-111059929D03*
X120211386Y-111059929D03*
%TD*%
D35*
%TO.C,BAT-*%
X109495126Y-73034125D03*
%TD*%
D28*
%TO.C,*%
X121687126Y-93573309D03*
%TD*%
D33*
%TO.C,C9*%
X149031552Y-78567048D03*
X149991552Y-78567048D03*
%TD*%
D13*
%TO.C,C14*%
X113305126Y-102143309D03*
X113305126Y-102783309D03*
%TD*%
D28*
%TO.C,*%
X178378144Y-93564263D03*
%TD*%
%TO.C,*%
X147700429Y-93579715D03*
%TD*%
D37*
%TO.C,C5*%
X139276828Y-82700875D03*
X138824280Y-82248327D03*
%TD*%
D29*
%TO.C,R22*%
X146484127Y-107496030D03*
X145844127Y-107496030D03*
%TD*%
D17*
%TO.C,R17*%
X111654126Y-82244125D03*
X111654126Y-81604125D03*
%TD*%
D36*
%TO.C,U7*%
X135030852Y-68508198D03*
X136105853Y-68508197D03*
X137180852Y-68508197D03*
X138255854Y-68508196D03*
%TD*%
D39*
%TO.C,J1*%
X124102126Y-111120309D03*
X115462126Y-111120309D03*
X124102126Y-114920309D03*
X115462126Y-114920309D03*
%TD*%
%TO.C,J1*%
X124102126Y-85120125D03*
X115462126Y-85120125D03*
X124102126Y-88920125D03*
X115462126Y-88920125D03*
%TD*%
D36*
%TO.C,U7*%
X135033852Y-94508198D03*
X136108853Y-94508197D03*
X137183852Y-94508197D03*
X138258854Y-94508196D03*
%TD*%
M02*
